<svg width="39" height="48" viewBox="0 0 39 48" fill="none" xmlns="http://www.w3.org/2000/svg">
<path d="M18.09 0.21C18 0.33 17.94 0.585 17.985 0.78C18.045 1.095 18.045 1.08 18.075 0.72C18.075 0.495 18.21 0.24 18.36 0.165C18.495 0.0749999 18.54 0 18.45 0C18.36 0 18.195 0.105 18.09 0.21Z" fill="#961515"/>
<path d="M20.94 0.960002C20.94 0.990002 21.15 1.17 21.39 1.35C21.645 1.53 21.84 1.635 21.84 1.59C21.84 1.56 21.645 1.38 21.39 1.2C21.15 1.02 20.94 0.915002 20.94 0.960002Z" fill="#961515"/>
<path d="M18.72 4.35C18.72 4.635 18.75 4.755 18.795 4.605C18.825 4.47 18.825 4.23 18.795 4.08C18.75 3.945 18.72 4.065 18.72 4.35Z" fill="#961515"/>
<path d="M17.805 7.14001C17.625 7.54501 17.64 7.56001 17.865 7.32001C18.015 7.18501 18.105 7.00501 18.06 6.90001C18.03 6.79501 17.91 6.91501 17.805 7.14001Z" fill="#961515"/>
<path d="M16.8 8.655C16.575 8.955 16.455 9.15 16.56 9.09C16.755 8.97 17.4 8.1 17.295 8.1C17.25 8.1 17.04 8.355 16.8 8.655Z" fill="#961515"/>
<path d="M8.49 9.615C7.83 10.185 7.29 10.68 7.29 10.695C7.29 10.725 7.425 10.74 7.59 10.74C7.755 10.74 7.875 10.665 7.845 10.59C7.815 10.5 8.175 10.125 8.625 9.75C9.09 9.36 9.555 8.94 9.675 8.805C10.095 8.28 9.645 8.595 8.49 9.615Z" fill="#961515"/>
<path d="M15.3 10.575C15.075 10.875 14.94 11.145 14.985 11.205C15.045 11.25 15.165 11.115 15.255 10.89C15.36 10.68 15.495 10.5 15.555 10.5C15.615 10.5 15.69 10.395 15.75 10.275C15.885 9.915 15.735 10.02 15.3 10.575Z" fill="#961515"/>
<path d="M6.66 11.58C6.09 12.375 5.49 13.335 5.49 13.485C5.49 13.56 5.385 13.695 5.265 13.8C5.145 13.905 5.04 14.055 5.04 14.13C5.04 14.385 5.295 14.1 5.55 13.575C5.7 13.26 5.88 13.08 5.97 13.14C6.075 13.2 6.09 13.17 6.03 13.08C5.94 12.93 6.21 12.42 6.93 11.43C7.065 11.25 7.14 11.1 7.095 11.1C7.065 11.1 6.87 11.325 6.66 11.58Z" fill="#961515"/>
<path d="M10.32 11.7C10.32 11.985 10.35 12.105 10.395 11.955C10.425 11.82 10.425 11.58 10.395 11.43C10.35 11.295 10.32 11.415 10.32 11.7Z" fill="#961515"/>
<path d="M14.55 11.58C14.49 11.685 14.34 11.94 14.22 12.15C14.01 12.51 14.025 12.51 14.265 12.225C14.565 11.865 14.82 11.4 14.73 11.4C14.685 11.4 14.61 11.49 14.55 11.58Z" fill="#961515"/>
<path d="M28.02 12C28.02 12.285 28.05 12.405 28.095 12.255C28.125 12.12 28.125 11.88 28.095 11.73C28.05 11.595 28.02 11.715 28.02 12Z" fill="#961515"/>
<path d="M13.215 13.815C12.78 14.655 12.465 15.42 12.615 15.27C12.75 15.135 13.74 13.05 13.665 13.05C13.62 13.05 13.425 13.395 13.215 13.815Z" fill="#961515"/>
<path d="M31.83 13.62C31.785 13.695 31.95 13.71 32.205 13.68C32.445 13.65 32.64 13.59 32.64 13.56C32.64 13.44 31.905 13.5 31.83 13.62Z" fill="#961515"/>
<path d="M31.59 14.88C31.545 15.435 31.575 15.825 31.635 15.765C31.695 15.705 31.74 15.24 31.71 14.76L31.665 13.875L31.59 14.88Z" fill="#961515"/>
<path d="M4.77 14.775C4.515 15.33 4.56 15.45 4.83 14.955C4.965 14.715 5.04 14.49 4.995 14.46C4.965 14.43 4.86 14.565 4.77 14.775Z" fill="#961515"/>
<path d="M33.765 14.7C33.825 14.82 33.99 15.045 34.11 15.18C34.215 15.315 34.275 15.495 34.215 15.585C34.155 15.69 34.215 15.705 34.365 15.66C34.575 15.57 34.56 15.51 34.26 15.165C33.675 14.505 33.645 14.46 33.765 14.7Z" fill="#961515"/>
<path d="M12.255 15.84C12.105 16.185 12.045 16.2 11.82 16.035C11.595 15.84 11.58 15.855 11.775 16.08C12.03 16.425 12.015 16.425 12.39 15.9C12.57 15.645 12.645 15.45 12.57 15.45C12.495 15.45 12.36 15.63 12.255 15.84Z" fill="#961515"/>
<path d="M31.245 16.74C31.11 17.115 31.065 17.37 31.14 17.325C31.29 17.235 31.65 16.215 31.56 16.125C31.53 16.095 31.395 16.365 31.245 16.74Z" fill="#961515"/>
<path d="M35.67 17.805C35.82 17.835 35.985 18.03 36.03 18.225C36.075 18.42 36.21 18.66 36.315 18.75C36.45 18.855 36.405 18.69 36.225 18.315C36.045 17.925 35.835 17.7 35.67 17.715C35.43 17.73 35.43 17.745 35.67 17.805Z" fill="#961515"/>
<path d="M29.76 19.08C29.28 19.59 28.92 20.04 28.95 20.07C29.01 20.115 29.1 20.04 30.075 18.99C30.435 18.6 30.69 18.255 30.66 18.225C30.63 18.195 30.225 18.585 29.76 19.08Z" fill="#961515"/>
<path d="M27.3 19.995C27.345 20.145 27.39 20.31 27.39 20.34C27.39 20.43 28.23 20.415 28.5 20.31C28.635 20.265 28.74 20.16 28.74 20.085C28.74 19.995 28.62 20.01 28.455 20.1C28.02 20.325 27.57 20.28 27.39 19.98C27.225 19.74 27.225 19.74 27.3 19.995Z" fill="#961515"/>
<path d="M1.35 23.295C1.08 23.61 1.08 23.625 1.35 23.37C1.62 23.13 1.665 23.13 2.07 23.415C2.295 23.58 2.49 23.685 2.49 23.64C2.49 23.61 2.295 23.43 2.055 23.265L1.635 22.965L1.35 23.295Z" fill="#961515"/>
<path d="M3.495 23.73C3.615 24.39 3.69 24.45 3.69 23.88C3.69 23.625 3.63 23.37 3.54 23.325C3.45 23.265 3.435 23.415 3.495 23.73Z" fill="#961515"/>
<path d="M0.72 24.6C0.54 25.095 0.465 25.5 0.54 25.5C0.615 25.5 0.705 25.41 0.735 25.305C0.78 25.215 0.825 25.26 0.825 25.425C0.84 25.695 0.855 25.695 1.08 25.47C1.26 25.29 1.29 25.17 1.155 24.93C0.93 24.525 0.945 24.045 1.17 23.97C1.305 23.925 1.305 23.88 1.185 23.805C1.08 23.73 0.9 24.03 0.72 24.6Z" fill="#961515"/>
<path d="M37.68 23.955C37.62 24.12 37.665 24.285 37.8 24.39C37.935 24.48 38.04 24.78 38.04 25.08C38.04 25.365 38.115 25.98 38.205 26.46C38.31 27.09 38.31 27.39 38.205 27.495C38.115 27.585 38.04 28.05 38.04 28.545C38.04 29.325 38.07 29.4 38.265 29.19C38.4 29.055 38.49 28.695 38.49 28.29C38.49 27.885 38.565 27.6 38.655 27.6C38.775 27.6 38.79 27.435 38.715 27.105C38.655 26.85 38.61 26.415 38.625 26.175C38.64 25.845 38.61 25.785 38.505 25.935C38.4 26.1 38.34 26.01 38.25 25.575C38.19 25.23 38.205 24.975 38.295 24.945C38.37 24.915 38.4 24.69 38.37 24.435C38.325 24.105 38.265 24.03 38.175 24.165C38.085 24.315 38.04 24.285 38.04 24.03C38.04 23.64 37.815 23.595 37.68 23.955Z" fill="#961515"/>
<path d="M2.34 24.09C2.34 24.21 2.415 24.27 2.49 24.225C2.58 24.18 2.64 24.21 2.64 24.315C2.64 24.42 2.67 24.465 2.715 24.42C2.835 24.315 2.64 23.85 2.475 23.85C2.4 23.85 2.34 23.955 2.34 24.09Z" fill="#961515"/>
<path d="M3.255 25.455C3.15 25.575 3.105 25.71 3.165 25.77C3.225 25.83 3.315 25.785 3.345 25.68C3.39 25.59 3.495 25.545 3.585 25.605C3.9 25.8 4.14 25.785 4.14 25.56C4.14 25.425 4.065 25.38 3.99 25.425C3.9 25.485 3.75 25.455 3.645 25.38C3.525 25.275 3.405 25.305 3.255 25.455Z" fill="#961515"/>
<path d="M0.255 26.25C0.15 26.625 0.135 26.94 0.21 27.09C0.315 27.27 0.375 27.12 0.435 26.535C0.555 25.56 0.495 25.455 0.255 26.25Z" fill="#961515"/>
<path d="M0 29.625C0 30.69 0.015 31.11 0.045 30.555C0.075 30 0.075 29.115 0.045 28.605C0.015 28.095 0 28.545 0 29.625Z" fill="#961515"/>
<path d="M38.685 28.95C38.685 29.655 38.715 29.94 38.745 29.58C38.775 29.235 38.775 28.665 38.745 28.305C38.715 27.96 38.685 28.245 38.685 28.95Z" fill="#961515"/>
<path d="M37.74 32.175C37.74 32.34 37.695 32.64 37.635 32.835C37.575 33.09 37.59 33.165 37.725 33.09C37.815 33.03 37.86 32.925 37.815 32.85C37.77 32.79 37.815 32.7 37.89 32.67C38.01 32.64 38.01 32.505 37.905 32.25C37.785 31.935 37.755 31.92 37.74 32.175Z" fill="#961515"/>
<path d="M38.25 32.16C38.205 32.28 38.19 32.505 38.22 32.655C38.265 32.82 38.31 32.745 38.355 32.43C38.445 31.92 38.385 31.8 38.25 32.16Z" fill="#961515"/>
<path d="M37.665 33.6C37.605 33.69 37.5 33.72 37.425 33.675C37.305 33.6 37.23 33.96 37.335 34.095C37.35 34.125 37.275 34.26 37.155 34.395C36.855 34.77 37.05 35.16 37.44 34.95C37.605 34.86 37.74 34.71 37.74 34.605C37.74 34.5 37.68 34.515 37.59 34.65C37.35 35.025 37.41 34.35 37.65 33.855C37.86 33.465 37.86 33.27 37.665 33.6Z" fill="#961515"/>
<path d="M0.629999 34.425C0.689999 34.545 0.809999 34.65 0.929999 34.65C1.215 34.65 1.2 34.41 0.899999 34.29C0.569999 34.155 0.539999 34.17 0.629999 34.425Z" fill="#961515"/>
<path d="M0.84 34.905C0.84 34.995 1.02 35.475 1.23 35.97C1.56 36.735 1.665 36.87 1.98 36.84C2.175 36.84 2.34 36.735 2.34 36.63C2.34 36.525 2.28 36.48 2.19 36.525C2.1 36.57 2.04 36.465 2.025 36.27C2.025 36.075 1.98 36.015 1.935 36.105C1.83 36.39 1.44 36.345 1.44 36.03C1.425 35.73 0.855 34.635 0.84 34.905Z" fill="#961515"/>
<path d="M37.14 35.55C37.14 35.835 37.185 35.865 37.32 35.73C37.455 35.595 37.455 35.505 37.32 35.37C37.185 35.235 37.14 35.265 37.14 35.55Z" fill="#961515"/>
<path d="M36.84 35.805C36.84 35.985 36.915 36.18 36.99 36.225C37.185 36.345 37.185 36 36.99 35.7C36.87 35.52 36.84 35.535 36.84 35.805Z" fill="#961515"/>
<path d="M36.585 36.75C36.54 36.915 36.375 37.05 36.225 37.05C36.06 37.05 35.94 37.11 35.94 37.2C35.94 37.275 35.985 37.335 36.06 37.335C36.345 37.29 36.405 37.365 36.24 37.575C36.105 37.725 36.105 37.8 36.225 37.8C36.375 37.8 36.45 37.605 36.405 37.305C36.405 37.245 36.45 37.2 36.51 37.2C36.585 37.2 36.72 37.035 36.81 36.825C36.93 36.57 36.93 36.45 36.825 36.45C36.735 36.45 36.63 36.585 36.585 36.75Z" fill="#961515"/>
<path d="M2.115 37.755C2.73 38.82 2.865 38.925 2.895 38.4C2.925 38.01 2.805 37.86 2.565 37.98C2.52 38.01 2.355 37.8 2.19 37.53C1.725 36.78 1.665 36.975 2.115 37.755Z" fill="#961515"/>
<path d="M35.61 38.01C35.385 38.175 35.37 38.235 35.565 38.49C35.685 38.64 35.79 38.745 35.79 38.7C35.82 38.625 35.88 37.8 35.865 37.8C35.865 37.8 35.745 37.905 35.61 38.01Z" fill="#961515"/>
<path d="M35.085 39.405C34.305 40.47 33.855 40.95 33.765 40.8C33.72 40.71 33.585 40.65 33.495 40.665C33.36 40.665 33.375 40.695 33.51 40.755C33.6 40.785 33.66 40.89 33.615 40.95C33.57 41.025 33.6 41.115 33.675 41.16C33.75 41.205 34.17 40.8 34.605 40.245C35.685 38.865 35.685 38.85 35.595 38.85C35.55 38.85 35.325 39.105 35.085 39.405Z" fill="#961515"/>
<path d="M3.135 39.375C3.39 39.885 3.915 40.41 4.095 40.335C4.155 40.305 3.915 39.975 3.555 39.6C2.985 39.015 2.925 38.985 3.135 39.375Z" fill="#961515"/>
<path d="M32.55 41.775C32.505 41.895 32.505 42.045 32.55 42.135C32.595 42.21 32.565 42.315 32.49 42.345C32.4 42.39 32.415 42.42 32.505 42.39C32.61 42.375 32.7 42.18 32.73 41.955C32.775 41.52 32.685 41.415 32.55 41.775Z" fill="#961515"/>
<path d="M5.7 42.27C5.955 42.54 6.195 42.75 6.27 42.75C6.405 42.75 6.015 42.345 5.565 42C5.4 41.88 5.46 42 5.7 42.27Z" fill="#961515"/>
<path d="M31.59 43.125C31.395 43.32 31.125 43.53 30.975 43.575C30.84 43.62 30.675 43.755 30.63 43.89C30.585 44.01 30.915 43.83 31.365 43.485C31.815 43.14 32.19 42.84 32.19 42.81C32.19 42.645 31.905 42.795 31.59 43.125Z" fill="#961515"/>
<path d="M6.69 43.11C6.69 43.215 8.19 44.295 8.265 44.235C8.295 44.19 7.95 43.92 7.5 43.605C7.05 43.29 6.69 43.065 6.69 43.11Z" fill="#961515"/>
<path d="M8.79 44.61C8.79 44.64 9.09 44.835 9.435 45.045C9.885 45.285 10.095 45.345 10.095 45.21C10.095 45.105 10.05 45.03 10.005 45.03C9.915 45.045 9.15 44.745 8.925 44.61C8.85 44.565 8.79 44.565 8.79 44.61Z" fill="#961515"/>
<path d="M27.84 45.525C27.63 45.645 27.54 45.735 27.615 45.735C27.705 45.735 27.93 45.645 28.14 45.525C28.35 45.405 28.455 45.315 28.365 45.315C28.29 45.315 28.05 45.405 27.84 45.525Z" fill="#961515"/>
<path d="M11.04 45.825C11.535 46.11 11.79 46.095 11.43 45.825C11.265 45.705 11.025 45.6 10.905 45.6C10.755 45.615 10.8 45.69 11.04 45.825Z" fill="#961515"/>
<path d="M26.79 45.99L26.415 46.215L26.79 46.11C27.21 46.005 27.315 45.93 27.225 45.84C27.195 45.81 27 45.87 26.79 45.99Z" fill="#961515"/>
<path d="M18.99 0.450008C18.87 0.525008 18.615 0.600008 18.42 0.600008C18.15 0.600008 18.075 0.675008 18.12 0.930008C18.15 1.17001 18.27 1.27501 18.48 1.26001C18.72 1.26001 18.78 1.32001 18.72 1.53001C18.69 1.68001 18.705 1.92001 18.765 2.05501C18.855 2.29501 18.87 2.31001 19.005 2.08501C19.08 1.92001 19.08 1.65001 18.975 1.36501C18.885 1.09501 18.855 0.840008 18.9 0.780008C19.05 0.630008 20.595 1.48501 21.48 2.20501C22.215 2.79001 22.245 2.80501 22.05 2.40001C21.93 2.17501 21.72 1.93501 21.6 1.89001C21.465 1.83001 21.39 1.69501 21.45 1.57501C21.51 1.42501 21.435 1.35001 21.225 1.35001C21.06 1.35001 20.895 1.24501 20.85 1.12501C20.805 1.00501 20.52 0.840008 20.22 0.735008C19.905 0.645009 19.605 0.510008 19.53 0.435008C19.35 0.270008 19.275 0.270008 18.99 0.450008Z" fill="#C11515"/>
<path d="M22.62 2.77501C22.59 3.12001 22.92 3.60001 23.175 3.60001C23.265 3.60001 23.34 3.49501 23.34 3.37501C23.34 3.25501 23.205 3.15001 23.055 3.15001C22.875 3.15001 22.74 3.03001 22.695 2.80501C22.635 2.52001 22.635 2.52001 22.62 2.77501Z" fill="#C11515"/>
<path d="M23.805 4.18501C23.64 4.29001 23.67 4.35001 23.925 4.48501C24.24 4.66501 24.33 4.57501 24.12 4.24501C24.045 4.14001 23.925 4.11001 23.805 4.18501Z" fill="#C11515"/>
<path d="M18.555 6.40501C18.555 6.51001 18.45 6.58501 18.36 6.55501C18.24 6.54001 18.15 6.70501 18.12 6.93001C18.09 7.17001 18.015 7.35001 17.94 7.35001C17.865 7.35001 17.67 7.57501 17.505 7.86001C17.325 8.14501 16.86 8.77501 16.47 9.27001C16.08 9.76501 15.66 10.32 15.54 10.5C15.42 10.695 15.21 10.965 15.09 11.085C14.685 11.535 13.62 13.26 13.08 14.37C12.54 15.495 12.54 15.495 12.54 15.735C12.54 15.81 12.435 15.99 12.3 16.11C12.09 16.32 12.03 16.32 11.745 16.125C11.4 15.885 10.89 15.825 10.89 16.035C10.89 16.11 11.205 16.44 11.58 16.785C12.315 17.475 12.57 17.46 12.765 16.68C12.87 16.23 14.31 13.245 14.595 12.9C14.7 12.78 15 12.36 15.27 11.97C15.54 11.58 16.245 10.635 16.83 9.87001C18.18 8.10001 18.72 7.12501 18.645 6.61501C18.615 6.40501 18.57 6.31501 18.555 6.40501Z" fill="#C11515"/>
<path d="M9.66 8.82001C9.555 8.94001 9.09 9.36 8.625 9.75C8.175 10.125 7.815 10.515 7.86 10.62C7.89 10.725 7.83 10.77 7.68 10.71C7.53 10.65 7.335 10.815 7.08 11.205C6.87 11.52 6.525 12.03 6.315 12.345C6.105 12.66 5.97 12.99 6.03 13.08C6.09 13.185 6.075 13.2 5.955 13.14C5.865 13.08 5.745 13.14 5.685 13.305C5.64 13.455 5.475 13.74 5.34 13.95C5.025 14.4 4.875 15.27 5.025 15.675C5.13 15.945 5.145 15.945 5.235 15.6C5.28 15.39 5.325 15.165 5.325 15.09C5.31 15.015 5.37 14.91 5.445 14.865C5.52 14.82 5.745 14.475 5.955 14.1C6.54 13.005 7.425 11.85 8.625 10.605C9.795 9.39001 10.215 9.16501 10.05 9.82501C9.975 10.11 10.02 10.2 10.215 10.2C10.41 10.2 10.455 10.11 10.38 9.84001C10.32 9.57001 10.365 9.42001 10.53 9.33001C10.68 9.25501 10.755 9.09001 10.695 8.97001C10.575 8.64001 9.885 8.55001 9.66 8.82001Z" fill="#C11515"/>
<path d="M31.92 14.145C31.815 14.415 31.74 14.985 31.74 15.39C31.725 15.855 31.605 16.395 31.365 16.86C31.17 17.265 31.035 17.655 31.08 17.73C31.125 17.79 31.05 17.895 30.93 17.94C30.795 17.985 30.69 18.09 30.69 18.18C30.69 18.255 30.6 18.405 30.51 18.51C30.405 18.615 30.06 18.975 29.76 19.32C29.445 19.665 29.115 19.965 29.01 19.98C28.905 20.01 28.725 20.115 28.62 20.205C28.32 20.49 27.57 20.43 27.24 20.1C26.82 19.68 26.445 19.695 26.565 20.13C26.94 21.375 28.41 21.36 29.865 20.085C30.15 19.83 30.345 19.545 30.285 19.455C30.24 19.38 30.27 19.35 30.345 19.395C30.69 19.605 32.31 16.74 32.13 16.26C32.085 16.155 32.115 16.02 32.205 15.96C32.295 15.915 32.34 15.555 32.325 15.18C32.28 14.445 32.475 14.22 32.865 14.55C33.06 14.715 33.09 14.67 33.09 14.28C33.09 13.95 33.015 13.815 32.76 13.74C32.19 13.59 32.1 13.635 31.92 14.145Z" fill="#C11515"/>
<path d="M34.245 16.155C34.155 16.305 34.845 17.4 35.04 17.4C35.235 17.4 35.235 17.145 35.025 17.01C34.935 16.965 34.74 16.71 34.59 16.47C34.44 16.23 34.29 16.08 34.245 16.155Z" fill="#C11515"/>
<path d="M37.38 23.445C37.53 24.195 37.635 24.21 37.785 23.535C37.875 23.22 37.83 23.115 37.575 23.055C37.305 22.98 37.275 23.025 37.38 23.445Z" fill="#C11515"/>
<path d="M1.29 23.475C1.2 23.595 1.155 23.76 1.215 23.85C1.26 23.925 1.23 24 1.155 24C0.945 24 0.945 24.54 1.155 24.93C1.305 25.215 1.335 25.2 1.575 24.66L1.845 24.075L2.13 24.54C2.28 24.795 2.505 24.975 2.61 24.945C2.865 24.855 2.835 24.465 2.565 24.36C2.445 24.3 2.34 24.105 2.34 23.91C2.34 23.715 2.205 23.49 2.055 23.4C1.665 23.19 1.515 23.205 1.29 23.475Z" fill="#C11515"/>
<path d="M37.665 24.705C37.74 25.02 38.04 27.27 38.04 27.6C38.04 27.63 38.115 27.585 38.205 27.495C38.31 27.39 38.31 27.09 38.205 26.46C38.115 25.98 38.04 25.35 38.04 25.035C38.04 24.66 37.965 24.45 37.8 24.39C37.605 24.315 37.575 24.375 37.665 24.705Z" fill="#C11515"/>
<path d="M4.455 25.17C4.44 25.395 4.08 25.8 3.9 25.8C3.84 25.8 3.66 25.68 3.51 25.545C3.24 25.305 3.24 25.305 3.33 25.545C3.375 25.695 3.345 25.8 3.255 25.8C3.165 25.8 3.09 25.74 3.09 25.665C3.09 25.59 2.97 25.485 2.835 25.44C2.64 25.365 2.67 25.44 2.925 25.71C3.12 25.92 3.345 26.055 3.435 25.995C3.525 25.95 3.54 25.98 3.495 26.055C3.345 26.295 3.765 26.565 4.08 26.46C4.29 26.4 4.32 26.415 4.155 26.52C3.99 26.64 4.02 26.685 4.275 26.775C4.71 26.91 4.89 26.76 4.89 26.28C4.875 25.86 4.47 24.825 4.455 25.17Z" fill="#C11515"/>
<path d="M0.644999 25.53C0.419999 26.46 0.374999 26.775 0.509999 26.565C0.629999 26.4 0.659999 26.4 0.734999 26.565C0.809999 26.775 0.959999 26.49 1.215 25.65C1.32 25.32 1.305 25.305 1.095 25.47C0.899999 25.635 0.854999 25.62 0.794999 25.395C0.749999 25.185 0.719999 25.23 0.644999 25.53Z" fill="#C11515"/>
<path d="M0.24 28.41C0.24 28.74 0.405 29.1 0.555 29.1C0.63 29.1 0.69 28.89 0.69 28.65C0.69 28.35 0.615 28.2 0.465 28.2C0.345 28.2 0.24 28.29 0.24 28.41Z" fill="#C11515"/>
<path d="M38.115 29.43C38.04 29.655 37.74 31.485 37.74 31.755C37.74 31.86 37.8 31.95 37.875 31.95C37.95 31.95 38.055 31.56 38.115 31.08C38.16 30.615 38.235 30 38.28 29.73C38.34 29.25 38.235 29.07 38.115 29.43Z" fill="#C11515"/>
<path d="M37.5 32.73C37.335 33.57 37.335 33.6 37.515 33.63C37.59 33.66 37.665 33.315 37.68 32.88C37.71 32.46 37.695 32.1 37.665 32.1C37.635 32.1 37.56 32.385 37.5 32.73Z" fill="#C11515"/>
<path d="M0.765 33.705C0.825 34.02 0.945 34.335 1.035 34.395C1.17 34.485 1.17 34.545 1.035 34.605C0.9 34.65 0.93 34.83 1.14 35.25C1.305 35.58 1.44 35.94 1.44 36.075C1.44 36.345 1.83 36.375 1.935 36.105C1.98 36.015 2.025 36.075 2.025 36.27C2.04 36.465 2.1 36.57 2.19 36.525C2.355 36.42 1.77 35.085 1.485 34.905C1.38 34.845 1.29 34.59 1.29 34.35C1.29 34.095 1.215 33.9 1.125 33.9C1.02 33.9 0.99 33.75 1.02 33.525C1.08 33.255 1.035 33.15 0.885 33.15C0.705 33.15 0.675 33.27 0.765 33.705Z" fill="#C11515"/>
<path d="M36.78 35.04C36.72 35.19 36.75 35.235 36.885 35.175C36.975 35.115 36.96 35.16 36.825 35.28C36.705 35.385 36.405 35.88 36.18 36.36C35.97 36.855 35.565 37.605 35.31 38.01C35.055 38.43 34.845 38.91 34.86 39.075C34.875 39.285 34.845 39.315 34.755 39.18C34.605 38.925 33.645 40.155 33.795 40.41C33.84 40.5 33.825 40.53 33.765 40.455C33.585 40.305 32.175 41.7 32.295 41.91C32.34 42 32.34 42.03 32.265 41.97C32.205 41.91 31.8 42.15 31.38 42.495C30.96 42.855 30.375 43.305 30.09 43.5C29.805 43.695 29.535 43.905 29.49 43.95C29.445 43.995 28.86 44.31 28.185 44.655C27.51 45 27.015 45.315 27.06 45.375C27.12 45.435 27.06 45.45 26.94 45.435C26.82 45.405 26.415 45.495 26.04 45.63C25.245 45.945 22.485 46.65 22.11 46.65C21.96 46.65 21.84 46.71 21.84 46.8C21.84 46.875 22.185 46.95 22.59 46.95C23.085 46.95 23.34 46.89 23.34 46.755C23.34 46.65 23.385 46.635 23.46 46.725C23.595 46.92 23.94 46.995 23.94 46.83C23.94 46.77 24.18 46.695 24.465 46.68C24.765 46.65 25.23 46.5 25.53 46.35C25.815 46.185 26.205 46.05 26.385 46.05C26.565 46.05 26.88 45.945 27.06 45.81C27.24 45.69 27.39 45.63 27.39 45.675C27.39 45.765 29.22 44.835 29.34 44.685C29.385 44.625 29.685 44.445 30 44.28C30.33 44.1 30.63 43.905 30.675 43.83C30.72 43.77 30.9 43.605 31.08 43.485C31.68 43.08 33.09 41.805 33.09 41.685C33.09 41.61 33.24 41.4 33.405 41.235C33.66 40.98 33.69 40.89 33.525 40.77C33.375 40.665 33.405 40.65 33.63 40.71C33.96 40.815 34.26 40.53 35.295 39.15C36.06 38.13 36.45 37.185 36.06 37.32C35.985 37.335 35.94 37.29 35.94 37.2C35.94 37.11 36.06 37.05 36.21 37.05C36.48 37.05 36.84 36.33 36.84 35.76C36.84 35.52 36.87 35.505 36.99 35.7C37.095 35.865 37.14 35.805 37.14 35.445C37.14 34.92 36.93 34.665 36.78 35.04ZM35.835 38.055C35.67 38.52 35.61 38.58 35.475 38.385C35.415 38.265 35.46 38.115 35.61 37.995C35.94 37.755 35.94 37.755 35.835 38.055Z" fill="#C11515"/>
<path d="M2.34 36.705C2.34 36.81 2.235 36.855 2.115 36.81C1.995 36.75 1.89 36.795 1.89 36.885C1.89 37.095 2.43 37.98 2.55 37.965C2.865 37.92 2.955 37.98 2.925 38.205C2.865 38.595 3.36 39.555 3.825 39.945C4.05 40.125 4.275 40.395 4.335 40.545C4.38 40.68 4.5 40.8 4.59 40.8C4.68 40.8 4.725 40.86 4.665 40.935C4.56 41.115 5.1 41.43 5.25 41.295C5.295 41.25 5.34 41.265 5.34 41.355C5.34 41.43 5.505 41.685 5.715 41.91C5.925 42.135 6.09 42.39 6.09 42.465C6.09 42.555 6.27 42.6 6.51 42.57C7.02 42.51 7.005 42.285 6.45 42C6.21 41.88 5.985 41.715 5.97 41.655C5.805 41.295 5.145 40.665 5.01 40.755C4.92 40.8 4.89 40.77 4.935 40.695C5.04 40.53 3.9 39 3.675 39C3.6 39 3.54 38.94 3.54 38.865C3.54 38.775 3.27 38.22 2.94 37.62C2.61 37.02 2.34 36.6 2.34 36.705Z" fill="#C11515"/>
<path d="M7.215 42.915C7.08 43.125 7.2 43.23 7.68 43.29C8.055 43.32 8.055 43.32 7.8 43.035C7.515 42.705 7.35 42.675 7.215 42.915Z" fill="#C11515"/>
<path d="M9.765 44.85C9.72 44.925 9.75 45 9.84 45C9.915 45 10.38 45.225 10.86 45.48C12 46.14 12.9 46.365 13.26 46.11C13.5 45.915 13.5 45.915 13.245 45.9C13.095 45.9 12.645 45.735 12.24 45.525C11.82 45.315 11.49 45.18 11.49 45.24C11.49 45.285 11.235 45.165 10.935 44.985C10.635 44.79 10.44 44.73 10.5 44.82C10.635 45.045 10.515 45.045 10.14 44.85C9.945 44.745 9.825 44.745 9.765 44.85Z" fill="#C11515"/>
<path d="M18.285 0.255009C18.18 0.285009 18.09 0.390009 18.09 0.465009C18.09 0.645009 18.645 0.630009 19.005 0.435009C19.2 0.345009 19.38 0.330009 19.485 0.420009C19.695 0.585009 20.64 0.915009 20.64 0.825009C20.64 0.795009 20.325 0.630009 19.95 0.450009C19.275 0.165009 18.675 0.0900091 18.285 0.255009Z" fill="#C14015"/>
<path d="M18.495 1.83001C18.54 2.10001 18.645 2.44501 18.705 2.58001C18.885 2.92501 18.87 4.60501 18.69 5.23501C18.615 5.50501 18.585 6.04501 18.645 6.40501L18.735 7.09501L18.96 6.66001C19.5 5.64001 19.83 3.00001 19.425 3.00001C19.35 3.00001 19.305 2.94001 19.35 2.86501C19.395 2.79001 19.395 2.50501 19.335 2.25001C19.26 1.81501 19.215 1.78501 19.065 1.99501C18.84 2.29501 18.69 2.17501 18.69 1.69501C18.69 1.50001 18.63 1.35001 18.54 1.35001C18.465 1.35001 18.435 1.56001 18.495 1.83001Z" fill="#C14015"/>
<path d="M21.39 1.65001C21.39 1.72501 21.525 1.86001 21.69 1.95001C21.855 2.04001 21.99 2.22001 21.99 2.35501C21.99 2.56501 21.945 2.56501 21.66 2.31001L21.315 2.02501L21.6 2.35501C21.75 2.53501 21.93 2.67001 21.975 2.65501C22.035 2.64001 22.275 2.82001 22.5 3.07501C22.725 3.31501 22.875 3.43501 22.815 3.33001C22.755 3.21001 22.83 3.15001 23.025 3.15001C23.205 3.15001 23.34 3.25501 23.34 3.37501C23.34 3.49501 23.265 3.60001 23.16 3.60001C23.07 3.60001 23.115 3.73501 23.265 3.90001C23.565 4.24501 23.865 4.29001 24.03 4.02001C24.09 3.91501 24 3.75001 23.82 3.63001C23.64 3.51001 23.49 3.31501 23.49 3.21001C23.49 3.01501 23.295 2.92501 22.995 2.98501C22.92 3.00001 22.905 2.94001 22.95 2.86501C22.995 2.79001 22.755 2.50501 22.41 2.22001C22.05 1.95001 21.75 1.68001 21.72 1.62001C21.645 1.45501 21.39 1.47001 21.39 1.65001Z" fill="#C14015"/>
<path d="M24.165 4.33501C24.24 4.59001 24.21 4.63501 23.985 4.54501C23.79 4.47001 23.835 4.59001 24.165 4.98001C24.42 5.26501 24.675 5.47501 24.75 5.43001C24.825 5.38501 24.84 5.43001 24.795 5.50501C24.69 5.67001 25.2 6.43501 25.545 6.64501C25.665 6.72001 25.71 6.82501 25.665 6.91501C25.605 6.99001 25.65 7.05001 25.725 7.05001C25.815 7.05001 25.875 7.09501 25.875 7.15501C25.83 7.45501 25.905 7.66501 26.04 7.57501C26.13 7.53001 26.145 7.59001 26.1 7.71001C26.04 7.84501 26.19 8.10001 26.445 8.34001C26.67 8.56501 26.775 8.70001 26.655 8.62501C26.49 8.53501 26.46 8.56501 26.535 8.76001C26.595 8.91001 26.685 9.19501 26.73 9.39001C26.775 9.58501 26.865 9.72001 26.925 9.69001C27.045 9.61501 27.075 9.91501 27.18 12.3C27.255 13.995 27.21 14.535 26.955 15.66C26.79 16.41 26.685 17.055 26.73 17.115C26.76 17.175 26.73 17.25 26.64 17.28C26.565 17.295 26.46 17.865 26.4 18.54L26.295 19.755L26.685 19.83C27.045 19.905 27.06 19.875 27.045 19.215C27.015 18.435 27.18 17.28 27.39 16.71C27.48 16.5 27.54 16.14 27.54 15.9C27.54 15.66 27.615 15.42 27.705 15.36C27.795 15.3 27.825 15.06 27.78 14.775C27.72 14.49 27.735 14.235 27.81 14.19C27.885 14.145 27.96 13.545 27.975 12.87C28.005 11.22 27.255 8.26501 26.64 7.65001C26.595 7.60501 26.55 7.47001 26.52 7.35001C26.43 6.96001 25.875 6.15001 25.575 6.00001C25.425 5.91001 25.335 5.76001 25.38 5.64001C25.425 5.53501 25.215 5.14501 24.9 4.78501C24.27 4.03501 24.015 3.87001 24.165 4.33501ZM27.495 12.855C27.465 13.095 27.435 12.93 27.435 12.525C27.435 12.105 27.465 11.925 27.495 12.105C27.525 12.3 27.525 12.63 27.495 12.855Z" fill="#C14015"/>
<path d="M10.26 8.65501C10.71 8.74501 10.845 9.10501 10.53 9.34501C10.335 9.49501 10.305 9.61501 10.425 9.90001C10.53 10.17 10.575 10.2 10.575 10.005C10.59 9.85501 10.695 9.58501 10.815 9.39001C11.025 9.06001 11.025 9.01501 10.815 8.79001C10.68 8.65501 10.425 8.56501 10.245 8.56501C9.93 8.59501 9.93 8.59501 10.26 8.65501Z" fill="#C14015"/>
<path d="M9.75 10.575C9.705 10.785 9.69 11.67 9.72 12.57C9.765 14.04 9.81 14.25 10.26 15.075C10.68 15.855 10.8 15.975 11.175 15.975C11.595 15.975 11.595 15.975 11.355 15.6C11.235 15.39 11.085 15.195 11.04 15.15C10.98 15.105 10.8 14.655 10.605 14.13C10.35 13.425 10.275 12.915 10.305 12.09C10.32 11.49 10.29 10.92 10.23 10.83C10.185 10.74 10.215 10.65 10.32 10.62C10.545 10.545 10.335 10.2 10.065 10.2C9.945 10.2 9.81 10.365 9.75 10.575Z" fill="#C14015"/>
<path d="M33.165 14.415C33.075 14.655 33.015 14.685 32.82 14.535C32.67 14.445 32.73 14.535 32.94 14.73C33.15 14.925 33.39 15.225 33.48 15.375C33.645 15.675 34.095 15.81 34.215 15.6C34.26 15.525 34.065 15.165 33.78 14.79C33.315 14.175 33.255 14.13 33.165 14.415Z" fill="#C14015"/>
<path d="M32.31 14.505C32.28 14.58 32.295 14.865 32.355 15.15L32.445 15.675L32.475 15.03C32.49 14.445 32.43 14.25 32.31 14.505Z" fill="#C14015"/>
<path d="M4.575 15.63C4.215 16.62 4.2 16.65 4.08 17.25C4.035 17.46 3.915 17.82 3.81 18.075C3.585 18.615 3.57 23.1 3.795 24.165C3.96 24.96 4.44 25.77 4.44 25.275C4.44 25.02 4.47 25.005 4.605 25.2C4.725 25.38 4.74 25.35 4.68 25.05C4.185 22.95 4.11 22.185 4.185 20.625C4.23 19.71 4.41 18.45 4.59 17.775C4.77 17.115 4.92 16.455 4.935 16.305C4.95 16.17 5.01 16.05 5.07 16.05C5.13 16.05 5.115 15.87 5.025 15.66C4.95 15.435 4.92 15.135 4.965 14.985C5.025 14.82 5.025 14.7 4.995 14.7C4.965 14.7 4.77 15.12 4.575 15.63Z" fill="#C14015"/>
<path d="M34.095 15.81C33.84 16.005 33.99 16.32 34.26 16.14C34.32 16.11 34.485 16.275 34.62 16.515C34.755 16.755 34.815 16.98 34.74 17.025C34.56 17.13 35.07 18 35.31 18C35.415 18 35.49 18.09 35.46 18.18C35.415 18.45 35.64 19.05 35.79 19.05C35.955 19.05 36.075 18.51 35.985 18.15C35.94 17.985 35.82 17.85 35.715 17.85C35.625 17.85 35.46 17.595 35.37 17.28C35.265 16.965 35.07 16.56 34.935 16.38C34.785 16.215 34.605 15.975 34.515 15.84C34.38 15.645 34.32 15.645 34.095 15.81ZM35.145 17.34C35.01 17.475 34.725 17.25 34.83 17.07C34.89 16.98 34.98 16.98 35.085 17.085C35.175 17.175 35.205 17.28 35.145 17.34Z" fill="#C14015"/>
<path d="M35.985 19.65C36.075 19.86 36.225 20.13 36.33 20.25C36.51 20.475 36.54 20.55 36.54 20.85C36.54 20.925 36.645 21 36.765 21C36.885 21 36.99 21.105 36.99 21.24C36.99 21.375 36.915 21.42 36.81 21.36C36.69 21.285 36.675 21.33 36.735 21.51C36.795 21.66 36.84 21.84 36.84 21.915C36.84 22.005 36.9 22.035 36.975 21.99C37.05 21.93 37.08 22.035 37.035 22.2C36.975 22.41 37.02 22.5 37.14 22.47C37.245 22.44 37.365 22.515 37.41 22.635C37.455 22.755 37.41 22.8 37.305 22.74C37.215 22.68 37.14 22.695 37.14 22.77C37.14 22.935 37.59 23.145 37.71 23.025C37.83 22.92 37.44 21.315 37.275 21.225C37.2 21.165 37.14 21 37.14 20.85C37.14 20.7 37.005 20.475 36.84 20.355C36.66 20.235 36.54 20.085 36.555 20.01C36.645 19.5 36.525 19.23 36.18 19.26C35.865 19.275 35.85 19.32 35.985 19.65Z" fill="#C14015"/>
<path d="M2.01 24.585C2.28 25.035 3.045 25.59 3.195 25.44C3.225 25.41 3.18 25.245 3.075 25.08C2.925 24.84 2.82 24.81 2.625 24.915C2.415 25.02 2.34 24.975 2.265 24.765C2.22 24.6 2.07 24.39 1.935 24.285C1.77 24.135 1.785 24.225 2.01 24.585Z" fill="#C14015"/>
<path d="M0.45 26.67C0.435 26.895 0.375 27.33 0.315 27.63C0.225 28.11 0.24 28.2 0.45 28.2C0.615 28.2 0.69 28.335 0.69 28.65C0.69 29.07 0.39 29.325 0.39 28.905C0.39 28.815 0.3 28.86 0.21 29.01C-4.64916e-07 29.37 0.15 31.2 0.42 31.635C0.57 31.875 0.57 32.01 0.45 32.22C0.315 32.43 0.33 32.55 0.48 32.76C0.585 32.925 0.645 33.105 0.585 33.195C0.525 33.285 0.57 33.3 0.675 33.225C0.78 33.165 0.84 32.985 0.795 32.835C0.75 32.67 0.78 32.55 0.855 32.55C0.93 32.55 0.99 32.445 0.99 32.31C0.99 32.19 0.93 32.115 0.87 32.16C0.81 32.19 0.765 31.185 0.78 29.91C0.795 28.635 0.75 27.57 0.675 27.525C0.45 27.375 0.525 27.15 0.765 27.24C0.93 27.315 0.99 27.225 0.975 26.91C0.975 26.535 0.96 26.52 0.84 26.775C0.72 27.06 0.705 27.06 0.705 26.745C0.69 26.265 0.465 26.205 0.45 26.67Z" fill="#C14015"/>
<path d="M37.95 28.575C37.95 29.475 37.965 29.835 37.995 29.355C38.025 28.875 38.025 28.14 37.995 27.705C37.965 27.27 37.95 27.66 37.95 28.575Z" fill="#C14015"/>
<path d="M38.535 28.35C38.535 28.8 38.565 28.995 38.595 28.755C38.625 28.53 38.625 28.17 38.595 27.93C38.565 27.705 38.535 27.9 38.535 28.35Z" fill="#C14015"/>
<path d="M37.995 31.68C37.965 31.95 37.98 32.28 38.055 32.4C38.13 32.55 38.175 32.385 38.19 31.905C38.19 31.08 38.1 30.99 37.995 31.68Z" fill="#C14015"/>
<path d="M37.785 33.105C37.77 33.465 37.77 33.48 37.89 33.225C38.055 32.835 38.07 32.7 37.92 32.7C37.86 32.7 37.8 32.88 37.785 33.105Z" fill="#C14015"/>
<path d="M1.095 33.3C1.14 33.585 1.245 33.93 1.305 34.05C1.38 34.185 1.395 34.065 1.335 33.75C1.29 33.465 1.185 33.12 1.125 33C1.05 32.865 1.035 32.985 1.095 33.3Z" fill="#C14015"/>
<path d="M0.585 33.705C0.615 33.885 0.675 34.095 0.735 34.14C0.9 34.305 0.855 33.855 0.69 33.6C0.57 33.42 0.555 33.45 0.585 33.705Z" fill="#C14015"/>
<path d="M4.935 40.575C4.935 40.695 4.98 40.77 5.01 40.725C5.055 40.68 5.235 40.77 5.4 40.905C5.625 41.1 5.61 41.055 5.355 40.755C4.92 40.275 4.935 40.29 4.935 40.575Z" fill="#C14015"/>
<path d="M5.79 41.355C5.79 41.565 6.015 41.79 6.315 41.91C6.57 42 6.57 41.97 6.255 41.64C5.865 41.22 5.79 41.175 5.79 41.355Z" fill="#C14015"/>
<path d="M5.37 41.775C5.55 41.985 5.76 42.15 5.835 42.15C6 42.15 5.325 41.4 5.16 41.4C5.085 41.4 5.19 41.565 5.37 41.775Z" fill="#C14015"/>
<path d="M6.66 42.555C6.435 42.615 6.435 42.66 6.72 42.975C6.885 43.17 7.215 43.41 7.44 43.5C7.68 43.605 7.905 43.785 7.965 43.92C8.055 44.145 8.085 44.145 8.295 43.875C8.52 43.575 8.52 43.575 8.445 43.92C8.355 44.295 8.835 44.73 9.18 44.595C9.3 44.55 9.39 44.595 9.39 44.685C9.39 44.775 9.54 44.835 9.735 44.835C9.915 44.82 10.17 44.85 10.305 44.91C10.455 44.97 10.605 44.94 10.68 44.835C10.74 44.73 10.725 44.685 10.635 44.745C10.545 44.805 10.425 44.745 10.38 44.61C10.32 44.445 10.185 44.4 9.975 44.445C9.795 44.49 9.645 44.445 9.585 44.325C9.525 44.145 8.1 43.125 7.89 43.125C7.695 43.11 7.215 42.765 7.26 42.645C7.32 42.495 7.02 42.45 6.66 42.555ZM7.68 43.305C7.575 43.41 7.2 43.185 7.02 42.885C6.84 42.6 6.855 42.6 7.275 42.915C7.53 43.095 7.71 43.275 7.68 43.305Z" fill="#C14015"/>
<path d="M9.84 45.075C9.84 45.165 10.68 45.6 10.845 45.6C10.995 45.6 10.44 45.225 10.11 45.105C9.96 45.045 9.84 45.045 9.84 45.075Z" fill="#C14015"/>
<path d="M13.23 46.125C13.065 46.245 12.975 46.395 13.035 46.44C13.155 46.56 14.55 46.905 15.84 47.145C17.025 47.355 22.185 47.355 22.815 47.13C23.25 46.98 23.25 46.98 22.575 46.965C22.2 46.95 21.84 46.905 21.78 46.845C21.72 46.785 20.52 46.71 19.095 46.695C16.32 46.635 15.9 46.605 15.525 46.44C15.39 46.38 15.12 46.32 14.925 46.29C14.73 46.26 14.37 46.17 14.145 46.065C13.62 45.855 13.575 45.855 13.23 46.125Z" fill="#C14015"/>
<path d="M25.815 46.2C25.71 46.38 25.845 46.38 26.265 46.2C26.55 46.08 26.55 46.065 26.235 46.065C26.055 46.05 25.86 46.11 25.815 46.2Z" fill="#C14015"/>
<path d="M20.64 1.69501C20.64 1.72501 20.865 1.90501 21.135 2.10001C21.435 2.32501 21.54 2.35501 21.405 2.19001C21.21 1.95001 20.64 1.57501 20.64 1.69501Z" fill="#EC4015"/>
<path d="M8.925 10.305L8.415 10.875L8.985 10.365C9.495 9.87001 9.615 9.75001 9.495 9.75001C9.465 9.75001 9.21 10.005 8.925 10.305Z" fill="#EC4015"/>
<path d="M9.585 12.3C9.585 12.84 9.615 13.05 9.645 12.78C9.675 12.525 9.675 12.075 9.645 11.805C9.615 11.55 9.585 11.76 9.585 12.3Z" fill="#EC4015"/>
<path d="M30.075 19.905L29.565 20.475L30.135 19.965C30.645 19.47 30.765 19.35 30.645 19.35C30.615 19.35 30.36 19.605 30.075 19.905Z" fill="#EC4015"/>
<path d="M37.32 27.48C37.305 28.74 37.23 29.595 37.065 30.03C36.945 30.375 36.84 30.855 36.84 31.08C36.84 31.29 36.75 31.665 36.63 31.905C36.51 32.13 36.33 32.73 36.24 33.225C36.015 34.35 35.535 35.805 35.205 36.3C35.07 36.51 34.755 37.05 34.53 37.5C34.065 38.385 32.82 40.02 31.845 41.055C31.305 41.625 31.275 41.7 31.47 41.985C31.68 42.285 31.71 42.27 32.46 41.505C32.88 41.07 33.24 40.65 33.24 40.575C33.24 40.485 33.315 40.425 33.405 40.425C33.69 40.425 35.355 38.04 36.015 36.675C36.705 35.235 37.47 33.12 37.425 32.715C37.41 32.58 37.425 32.4 37.44 32.325C37.455 32.235 37.455 31.785 37.44 31.305C37.425 30.66 37.47 30.45 37.62 30.48C37.77 30.51 37.83 30.225 37.86 29.355C37.89 28.635 37.845 28.2 37.74 28.2C37.665 28.2 37.59 27.99 37.59 27.75C37.59 27.495 37.665 27.3 37.74 27.3C37.92 27.3 37.92 26.445 37.74 26.025C37.62 25.755 37.605 25.755 37.59 26.1C37.56 26.445 37.545 26.445 37.44 26.025C37.38 25.755 37.32 26.31 37.32 27.48Z" fill="#EC4015"/>
<path d="M3.03 26.175C3.09 26.295 3.225 26.4 3.345 26.4C3.525 26.4 3.525 26.37 3.33 26.175C3.21 26.055 3.075 25.95 3.03 25.95C2.985 25.95 2.985 26.055 3.03 26.175Z" fill="#EC4015"/>
<path d="M37.635 31.275C37.635 31.605 37.665 31.725 37.695 31.53C37.725 31.35 37.725 31.08 37.695 30.93C37.65 30.795 37.62 30.945 37.635 31.275Z" fill="#EC4015"/>
<path d="M1.74 34.065C1.74 34.14 1.665 34.17 1.56 34.11C1.455 34.035 1.425 34.08 1.485 34.245C1.53 34.38 1.65 34.755 1.74 35.085C1.83 35.415 1.995 35.79 2.115 35.895C2.235 36.015 2.28 36.15 2.235 36.21C2.175 36.255 2.235 36.3 2.34 36.3C2.445 36.3 2.505 36.345 2.445 36.39C2.325 36.525 3.06 37.95 3.255 37.95C3.33 37.95 3.36 38.01 3.315 38.1C3.27 38.175 3.285 38.25 3.36 38.25C3.45 38.25 3.585 38.46 3.675 38.73C3.885 39.315 4.14 39.12 4.035 38.445C3.975 38.115 3.855 37.95 3.615 37.89C3.375 37.83 3.285 37.695 3.285 37.395C3.27 36.615 2.925 35.55 2.685 35.55C2.55 35.55 2.49 35.46 2.535 35.34C2.64 35.085 2.1 33.9 1.89 33.9C1.8 33.9 1.74 33.975 1.74 34.065Z" fill="#EC4015"/>
<path d="M4.395 39.69C4.515 39.885 4.725 40.05 4.83 40.05C5.265 40.05 4.98 39.54 4.485 39.42C4.17 39.33 4.17 39.345 4.395 39.69Z" fill="#EC4015"/>
<path d="M5.895 41.04C6.375 41.49 6.42 41.49 6.225 41.055C6.135 40.86 5.94 40.71 5.79 40.695C5.535 40.665 5.55 40.725 5.895 41.04Z" fill="#EC4015"/>
<path d="M18.99 1.05C18.99 1.125 19.11 1.485 19.26 1.83C19.44 2.295 19.515 2.88 19.515 3.975C19.515 5.28 19.455 5.61 19.08 6.48C18.855 7.035 18.27 8.04 17.79 8.715C17.295 9.405 16.935 10.005 16.98 10.08C17.025 10.14 16.965 10.2 16.86 10.2C16.68 10.2 15.54 11.565 15.54 11.775C15.54 11.82 15.66 11.85 15.81 11.85C16.02 11.85 16.035 11.88 15.84 12C15.705 12.09 15.585 12.075 15.525 11.985C15.465 11.895 15.3 12 15.135 12.255C14.64 12.96 14.61 13.05 14.85 12.96C14.985 12.915 15.09 12.795 15.09 12.72C15.09 12.63 15.195 12.6 15.315 12.645C15.435 12.705 15.66 12.555 15.87 12.3C16.065 12.06 16.38 11.655 16.56 11.4C16.77 11.145 16.875 10.845 16.83 10.71C16.77 10.56 16.845 10.44 17.025 10.395C17.175 10.365 17.385 10.155 17.475 9.96C17.565 9.765 17.73 9.6 17.865 9.6C17.985 9.6 18.09 9.525 18.09 9.45C18.09 9.36 18.495 8.82 18.975 8.25C19.56 7.545 19.89 7.005 19.965 6.63C20.01 6.33 20.16 5.91 20.295 5.73C20.445 5.49 20.52 4.95 20.535 4.035C20.55 2.505 20.67 2.4 21.375 3.255C21.63 3.57 21.915 3.93 22.02 4.05C22.395 4.5 22.995 5.49 23.1 5.82C23.16 6 23.31 6.15 23.43 6.15C23.55 6.15 23.64 6.3 23.64 6.51C23.64 6.705 23.76 7.02 23.91 7.215C24.285 7.695 24.705 8.655 24.66 8.88C24.615 9.15 24.975 10.155 25.335 10.77C25.785 11.535 25.905 12.735 25.65 13.935C25.455 14.88 25.47 15.015 25.74 15.795C25.905 16.26 26.04 16.74 26.04 16.86C26.04 16.98 26.115 17.1 26.22 17.13C26.34 17.175 26.325 17.325 26.145 17.685C25.665 18.66 26.13 20.58 27 21.18C27.105 21.255 27.105 21.3 27.015 21.3C26.94 21.315 27.015 21.375 27.21 21.45C27.39 21.525 27.63 21.57 27.735 21.54C27.825 21.525 27.87 21.525 27.81 21.555C27.63 21.66 27.66 22.8 27.84 22.8C27.93 22.8 27.99 22.65 27.99 22.455C27.99 22.215 28.035 22.185 28.125 22.32C28.2 22.44 28.485 22.53 28.755 22.545C29.67 22.56 31.425 21.12 32.295 19.65C32.505 19.275 32.7 18.96 32.715 18.93C32.79 18.84 33.51 19.59 33.885 20.175C34.95 21.825 35.79 25.23 35.79 27.96C35.79 29.67 35.355 32.055 34.71 33.87C34.38 34.83 34.26 35.475 34.23 36.3C34.215 37.14 34.17 37.41 34.02 37.38C33.9 37.365 33.855 37.41 33.9 37.485C33.96 37.56 33.93 37.665 33.84 37.725C33.765 37.77 33.69 37.935 33.69 38.085C33.69 38.235 33.495 38.565 33.24 38.82C33 39.09 32.79 39.36 32.79 39.435C32.79 39.75 29.865 42.735 29.235 43.065C29.01 43.185 28.68 43.41 28.5 43.59C28.305 43.755 27.78 44.085 27.33 44.31C26.88 44.535 26.31 44.895 26.085 45.09C25.86 45.285 25.62 45.45 25.56 45.45C25.485 45.45 25.44 45.51 25.44 45.585C25.44 45.675 25.62 45.675 25.86 45.615C26.475 45.435 28.8 44.25 28.92 44.055C28.98 43.95 29.04 43.935 29.04 43.995C29.04 44.115 30.435 43.185 31.215 42.555C31.605 42.225 31.635 42.15 31.455 41.94C31.26 41.715 31.32 41.61 31.845 41.055C32.82 40.02 34.065 38.385 34.53 37.5C34.755 37.05 35.07 36.51 35.205 36.3C35.535 35.805 36.015 34.35 36.24 33.225C36.33 32.73 36.51 32.13 36.63 31.905C36.75 31.665 36.84 31.29 36.84 31.08C36.84 30.855 36.945 30.375 37.065 30.03C37.215 29.595 37.305 28.725 37.32 27.48C37.335 26.43 37.38 25.77 37.41 26.025C37.485 26.445 37.485 26.46 37.575 26.115C37.695 25.695 37.605 24.57 37.455 24.66C37.41 24.69 37.35 24.405 37.335 24.03C37.29 23.01 36.6 20.97 35.7 19.155C34.875 17.49 33.36 15.135 32.835 14.655C32.535 14.4 32.535 14.4 32.43 15.39C32.295 16.665 31.935 17.595 31.125 18.765C30.315 19.92 29.94 20.28 28.98 20.775C27.315 21.615 26.34 20.955 26.34 19.005C26.34 18.705 26.28 18.45 26.19 18.45C26.115 18.45 26.04 18.375 26.04 18.285C26.04 18.21 26.1 18.165 26.175 18.225C26.34 18.315 26.475 17.97 26.52 17.28C26.535 17.025 26.61 16.8 26.685 16.8C26.76 16.8 26.79 16.59 26.73 16.35C26.685 16.095 26.7 15.915 26.775 15.96C27 16.11 27.24 14.4 27.24 12.645C27.24 10.77 26.955 9.6 26.055 7.83C24.705 5.16 22.035 2.37 19.725 1.185C19.065 0.854998 18.99 0.839998 18.99 1.05Z" fill="#EC6B15"/>
<path d="M8.595 10.755C7.95 11.4 7.17 12.33 6.825 12.825C6.015 14.025 5.31 15.435 5.415 15.6C5.475 15.69 5.445 15.75 5.355 15.75C5.13 15.75 4.5 17.88 4.29 19.335C4.065 20.835 4.17 23.115 4.515 24.3C4.95 25.785 5.055 26.28 4.965 26.565C4.845 26.91 4.32 26.94 3.9 26.625C3.75 26.505 3.51 26.4 3.39 26.4C3.27 26.4 3.015 26.145 2.82 25.83C2.625 25.53 2.31 25.08 2.115 24.825L1.755 24.39L1.59 24.825C0.99 26.37 0.66 29.055 0.855 30.975C0.915 31.635 0.975 32.265 0.975 32.37C0.99 32.475 1.035 32.535 1.11 32.505C1.17 32.46 1.23 32.745 1.245 33.12C1.26 33.495 1.38 33.915 1.515 34.035C1.665 34.185 1.74 34.2 1.74 34.08C1.74 33.975 1.8 33.9 1.89 33.9C2.1 33.9 2.64 35.085 2.535 35.34C2.49 35.46 2.55 35.55 2.685 35.55C2.925 35.55 3.27 36.615 3.285 37.395C3.285 37.695 3.375 37.83 3.63 37.89C3.885 37.95 3.99 38.1 4.02 38.385C4.02 38.595 4.05 38.835 4.05 38.925C4.095 39.225 4.32 39.45 4.59 39.45C4.875 39.45 5.1 39.825 4.95 40.065C4.905 40.14 4.98 40.2 5.1 40.2C5.22 40.2 5.37 40.26 5.415 40.35C5.475 40.44 5.4 40.455 5.235 40.41C4.815 40.275 7.14 42.465 8.265 43.275C9.345 44.04 12.285 45.57 12.765 45.615C12.93 45.615 13.17 45.63 13.29 45.615C13.545 45.6 12.645 44.955 11.745 44.52C10.59 43.965 10.185 43.71 9.18 42.915C8.625 42.48 8.085 41.925 7.95 41.685C7.83 41.445 7.575 41.145 7.365 41.01C7.17 40.89 6.96 40.59 6.915 40.35C6.855 40.11 6.615 39.66 6.375 39.36C6.135 39.06 5.94 38.745 5.94 38.67C5.94 38.595 5.67 38.175 5.34 37.725C4.23 36.225 2.775 32.535 2.685 30.975C2.655 30.39 2.595 29.445 2.55 28.875C2.49 28.08 2.52 27.72 2.7 27.375C2.835 27.12 2.94 27.015 2.94 27.105C2.94 27.21 3 27.285 3.06 27.255C3.135 27.24 3.525 27.435 3.93 27.69C4.965 28.365 5.88 28.62 6.18 28.335C6.36 28.155 6.36 27.975 6.225 27.255C6.12 26.79 6 26.4 5.94 26.4C5.88 26.4 5.79 26.145 5.73 25.83C5.685 25.53 5.565 24.93 5.475 24.525C5.25 23.505 5.13 18.345 5.31 17.94C5.4 17.76 5.61 17.145 5.805 16.575C6.225 15.24 6.51 14.625 6.93 14.175C7.11 13.965 7.305 13.665 7.365 13.5C7.41 13.335 7.545 13.2 7.665 13.2C7.77 13.2 7.89 13.125 7.92 13.02C8.04 12.69 8.34 13.065 8.355 13.545L8.37 14.025L8.49 13.575C8.55 13.32 8.61 13.215 8.625 13.305C8.625 13.41 8.745 13.5 8.88 13.5C9.015 13.5 9.255 13.65 9.405 13.83C9.57 13.995 9.72 14.115 9.75 14.085C9.78 14.055 9.735 13.665 9.645 13.23C9.495 12.48 9.615 10.95 9.93 9.93C10.095 9.375 9.795 9.555 8.595 10.755ZM5.04 18.495C5.04 18.57 4.98 18.57 4.89 18.525C4.815 18.48 4.74 18.555 4.74 18.69C4.74 18.84 4.695 18.915 4.65 18.855C4.59 18.81 4.605 18.585 4.65 18.345C4.74 18.03 4.785 17.985 4.905 18.165C4.98 18.27 5.04 18.435 5.04 18.495ZM6.225 41.055C6.42 41.49 6.375 41.49 5.895 41.04C5.55 40.725 5.535 40.665 5.79 40.695C5.94 40.71 6.135 40.86 6.225 41.055Z" fill="#EC6B15"/>
<path d="M14.325 13.515C14.19 13.77 14.205 13.815 14.355 13.725C14.49 13.635 14.52 13.68 14.445 13.86C14.385 13.995 14.4 14.085 14.475 14.025C14.55 13.98 14.655 14.04 14.685 14.13C14.73 14.235 14.775 14.07 14.775 13.755C14.79 13.14 14.595 13.035 14.325 13.515Z" fill="#EC6B15"/>
<path d="M13.515 15.105C13.29 15.585 13.005 16.245 12.885 16.575C12.75 16.905 12.585 17.235 12.525 17.31C12.3 17.565 11.565 17.085 11.055 16.335C10.62 15.705 10.515 15.615 10.395 15.825C10.32 15.96 10.305 16.11 10.35 16.155C10.395 16.215 10.44 16.155 10.44 16.035C10.44 15.825 10.8 16.35 10.98 16.83C11.085 17.13 11.415 17.295 12.24 17.475C12.585 17.55 12.66 17.445 13.395 15.9C13.815 15 14.115 14.25 14.04 14.25C13.965 14.25 13.74 14.64 13.515 15.105Z" fill="#EC6B15"/>
<path d="M37.59 27.75C37.59 27.99 37.665 28.2 37.74 28.2C37.83 28.2 37.89 27.99 37.89 27.75C37.89 27.495 37.83 27.3 37.74 27.3C37.665 27.3 37.59 27.495 37.59 27.75Z" fill="#EC6B15"/>
<path d="M37.44 31.275C37.44 31.755 37.47 32.115 37.5 32.085C37.62 31.98 37.65 30.615 37.545 30.51C37.485 30.45 37.44 30.795 37.44 31.275Z" fill="#EC6B15"/>
<path d="M23.865 45.765C23.46 45.81 23.19 45.87 23.265 45.885C23.355 45.9 23.31 45.96 23.19 46.05C22.74 46.335 23.19 46.365 24.225 46.11C25.77 45.735 25.575 45.54 23.865 45.765Z" fill="#EC6B15"/>
<path d="M13.83 45.9C13.935 46.005 14.115 46.005 14.355 45.915C14.7 45.78 14.685 45.765 14.205 45.765C13.845 45.75 13.725 45.795 13.83 45.9Z" fill="#EC6B15"/>
<path d="M14.94 46.185C14.94 46.335 15.975 46.56 16.11 46.44C16.155 46.395 16.05 46.35 15.87 46.35C15.705 46.35 15.51 46.275 15.465 46.2C15.345 46.02 14.94 46.005 14.94 46.185Z" fill="#EC6B15"/>
<path d="M22.05 46.365C22.005 46.455 21.84 46.5 21.69 46.455C21.54 46.425 21.33 46.455 21.225 46.53C21.09 46.62 21.3 46.635 21.84 46.575C22.725 46.47 23.235 46.2 22.56 46.2C22.335 46.2 22.11 46.275 22.05 46.365Z" fill="#EC6B15"/>
<path d="M16.71 46.605C16.89 46.635 17.19 46.635 17.385 46.605C17.565 46.575 17.415 46.545 17.04 46.545C16.665 46.545 16.515 46.575 16.71 46.605Z" fill="#EC6B15"/>
<path d="M18.66 46.755C19.005 46.785 19.575 46.785 19.935 46.755C20.28 46.725 19.995 46.695 19.29 46.695C18.585 46.695 18.3 46.725 18.66 46.755Z" fill="#EC6B15"/>
<path d="M20.49 2.86501C20.49 2.94001 20.565 2.97001 20.655 2.91001C20.745 2.86501 21.03 3.01501 21.285 3.24001L21.765 3.67501L21.33 3.18001C20.895 2.70001 20.49 2.55001 20.49 2.86501Z" fill="#EC9615"/>
<path d="M20.58 4.065C20.535 4.32 20.49 4.755 20.49 5.01C20.49 5.265 20.385 5.595 20.265 5.745C20.16 5.91 20.025 6.285 19.965 6.6C19.89 7.005 19.59 7.5 18.975 8.235C18.495 8.82 18.09 9.36 18.09 9.45C18.09 9.525 17.985 9.6 17.865 9.6C17.73 9.6 17.565 9.765 17.475 9.96C17.385 10.155 17.175 10.365 17.025 10.395C16.83 10.44 16.77 10.56 16.83 10.71C16.875 10.845 16.77 11.145 16.575 11.4C16.38 11.64 16.065 12.045 15.87 12.3C15.675 12.555 15.45 12.72 15.375 12.66C15.09 12.48 14.73 13.08 14.76 13.71C14.775 14.04 14.745 14.235 14.7 14.13C14.655 14.04 14.55 13.98 14.475 14.025C14.4 14.085 14.385 13.995 14.445 13.845C14.505 13.635 14.49 13.62 14.355 13.74C14.25 13.83 14.16 14.01 14.13 14.13C14.115 14.265 13.77 15.075 13.365 15.96C12.66 17.46 12.585 17.55 12.24 17.475C11.415 17.295 11.085 17.13 10.98 16.83C10.755 16.23 10.47 15.87 10.38 16.08C10.335 16.185 10.335 16.125 10.365 15.945C10.41 15.765 10.32 15.39 10.14 15.09C9.975 14.79 9.84 14.475 9.84 14.385C9.84 14.145 9.135 13.5 8.865 13.5C8.745 13.5 8.625 13.41 8.625 13.305C8.61 13.215 8.55 13.32 8.49 13.575L8.37 14.025L8.355 13.545C8.34 13.065 8.04 12.69 7.92 13.02C7.89 13.125 7.77 13.2 7.665 13.2C7.545 13.2 7.41 13.335 7.365 13.5C7.305 13.665 7.11 13.965 6.93 14.175C6.51 14.625 6.225 15.24 5.805 16.575C5.61 17.145 5.4 17.76 5.31 17.94C5.13 18.345 5.25 23.505 5.475 24.525C5.565 24.93 5.685 25.53 5.73 25.83C5.79 26.145 5.88 26.4 5.94 26.4C6 26.4 6.12 26.79 6.225 27.255C6.36 27.975 6.36 28.155 6.18 28.335C5.88 28.62 4.965 28.365 3.93 27.69C3.525 27.435 3.135 27.24 3.06 27.27C3 27.285 2.94 27.21 2.94 27.12C2.94 27.015 2.835 27.12 2.7 27.375C2.52 27.72 2.49 28.08 2.55 28.875C2.595 29.445 2.655 30.39 2.685 30.975C2.775 32.535 4.23 36.225 5.34 37.725C5.67 38.175 5.94 38.595 5.94 38.67C5.94 38.745 6.135 39.06 6.375 39.36C6.615 39.66 6.855 40.11 6.915 40.35C6.96 40.59 7.17 40.89 7.365 41.01C7.575 41.145 7.83 41.445 7.95 41.685C8.085 41.925 8.625 42.48 9.18 42.915C10.185 43.71 10.59 43.965 11.745 44.52C12.735 45 13.485 45.555 13.26 45.645C13.035 45.735 13.395 45.78 14.19 45.765C14.625 45.765 14.655 45.78 14.415 45.885C14.13 46.02 14.145 46.035 14.49 46.05C14.7 46.08 14.955 46.08 15.06 46.065C15.18 46.05 15.345 46.11 15.465 46.2C15.9 46.56 18.525 46.695 21.615 46.5C21.765 46.5 21.99 46.41 22.095 46.32C22.2 46.23 22.44 46.2 22.635 46.23C22.98 46.29 23.4 46.02 23.235 45.84C23.145 45.765 23.55 45.735 24.99 45.705C25.2 45.69 25.455 45.6 25.56 45.495C25.68 45.39 25.845 45.345 25.935 45.405C26.04 45.45 26.07 45.45 26.01 45.375C25.845 45.21 26.355 44.805 27.33 44.31C27.78 44.085 28.305 43.755 28.5 43.59C28.68 43.41 29.01 43.185 29.235 43.065C29.865 42.735 32.79 39.75 32.79 39.435C32.79 39.36 33 39.09 33.24 38.82C33.495 38.565 33.69 38.235 33.69 38.085C33.69 37.935 33.765 37.77 33.84 37.725C33.93 37.665 33.96 37.56 33.9 37.485C33.855 37.41 33.9 37.365 34.02 37.38C34.17 37.41 34.215 37.14 34.23 36.3C34.26 35.475 34.38 34.83 34.71 33.87C35.355 32.055 35.79 29.67 35.79 27.96C35.79 25.23 34.95 21.825 33.885 20.175C33.51 19.59 32.79 18.84 32.715 18.93C32.7 18.96 32.505 19.275 32.295 19.65C31.425 21.12 29.67 22.56 28.755 22.545C28.485 22.53 28.2 22.44 28.125 22.32C28.035 22.185 27.99 22.215 27.99 22.455C27.99 22.65 27.93 22.8 27.84 22.8C27.66 22.8 27.63 21.66 27.81 21.555C27.87 21.525 27.825 21.525 27.735 21.54C27.63 21.57 27.39 21.525 27.21 21.45C27.015 21.375 26.94 21.315 27.015 21.3C27.105 21.3 27.105 21.255 27 21.18C26.13 20.58 25.665 18.66 26.145 17.685C26.325 17.325 26.34 17.175 26.22 17.13C26.115 17.1 26.04 16.98 26.04 16.86C26.04 16.74 25.905 16.26 25.74 15.795C25.47 15.015 25.455 14.88 25.65 13.935C25.905 12.735 25.785 11.535 25.335 10.77C24.975 10.155 24.615 9.15 24.66 8.88C24.705 8.655 24.285 7.695 23.91 7.215C23.76 7.02 23.64 6.705 23.64 6.51C23.64 6.3 23.55 6.15 23.43 6.15C23.31 6.15 23.16 6 23.085 5.805C22.86 5.205 22.215 4.2 22.005 4.125C21.825 4.05 21.825 4.08 22.02 4.305C22.425 4.77 22.935 5.805 22.86 6.015C22.785 6.255 21.51 4.935 21 4.11L20.685 3.585L20.58 4.065ZM21.435 8.64C21.57 8.7 21.69 8.79 21.69 8.865C21.69 8.94 21.795 9 21.93 9C22.065 9 22.2 9.135 22.245 9.3C22.29 9.465 22.41 9.6 22.5 9.6C22.59 9.6 22.77 9.735 22.89 9.9C23.01 10.065 23.265 10.2 23.445 10.2C23.685 10.2 23.79 10.29 23.79 10.5C23.79 10.665 23.865 10.8 23.94 10.8C24.03 10.8 24.09 10.935 24.09 11.1C24.09 11.265 24.165 11.4 24.24 11.4C24.33 11.4 24.39 11.58 24.39 11.79C24.39 12.03 24.45 12.135 24.555 12.06C24.75 11.955 24.675 13.365 24.39 15.075C24.315 15.57 24.21 16.35 24.165 16.8C24.045 18.015 23.94 18.45 23.745 18.45C23.61 18.45 23.625 18.495 23.745 18.57C23.85 18.63 24 19.065 24.09 19.515C24.54 21.915 25.485 22.98 27.315 23.175C28.245 23.265 30.24 23.955 30.24 24.18C30.24 24.24 30.345 24.3 30.465 24.3C30.585 24.3 30.69 24.405 30.69 24.525C30.69 24.66 30.78 24.795 30.9 24.84C31.17 24.945 31.365 25.665 31.155 25.8C31.05 25.86 31.155 26.13 31.44 26.505C31.71 26.865 32.025 27.615 32.205 28.305C32.52 29.46 32.595 31.125 32.475 34.725C32.46 35.295 32.475 36.105 32.52 36.525C32.55 36.93 32.52 37.41 32.43 37.575C31.995 38.355 31.365 39.165 30.405 40.2C29.655 40.98 29.37 41.4 29.43 41.58C29.505 41.82 29.295 42.09 28.455 42.765C27.93 43.215 26.385 44.07 25.815 44.25C25.485 44.355 25.17 44.505 25.125 44.58C24.945 44.85 21.03 45.825 20.775 45.66C20.7 45.615 20.64 45.66 20.64 45.765C20.64 46.08 17.295 45.825 16.29 45.435C15.84 45.255 15 44.955 14.43 44.76C13.86 44.565 13.14 44.235 12.855 44.04C12.555 43.845 12.165 43.635 12 43.59C11.82 43.53 11.565 43.365 11.415 43.2C11.265 43.035 11.025 42.9 10.89 42.9C10.59 42.9 9 41.385 7.365 39.555C6.645 38.76 6.27 38.205 6.195 37.83C6.135 37.53 5.925 36.795 5.73 36.225C5.535 35.64 5.34 34.935 5.295 34.65C5.175 33.84 5.43 30.84 5.625 30.78C5.715 30.75 5.79 30.57 5.79 30.375C5.79 30.18 5.925 29.925 6.075 29.82C6.24 29.7 6.42 29.43 6.48 29.19C6.54 28.935 6.615 28.845 6.69 28.95C6.885 29.28 6.945 28.77 6.84 27.6C6.72 26.4 6.72 26.355 6.9 25.83C7.02 25.47 6.765 24.99 6.525 25.14C6.45 25.185 6.39 25.095 6.39 24.945C6.39 24.78 6.315 24.585 6.225 24.495C6.12 24.39 6.12 24.165 6.24 23.715C6.36 23.28 6.36 23.01 6.24 22.8C6.15 22.635 6.105 22.44 6.135 22.38C6.285 22.155 6.39 18.45 6.27 18.45C6.06 18.45 6.18 17.535 6.39 17.4C6.495 17.325 6.54 17.145 6.495 16.965C6.45 16.785 6.54 16.29 6.705 15.87C6.855 15.435 6.99 15.06 6.99 15.03C6.99 15 7.065 15.03 7.155 15.075C7.245 15.135 7.395 15.06 7.515 14.91C7.71 14.64 7.725 14.64 7.83 14.925C7.905 15.09 8.01 15.285 8.07 15.375C8.445 15.81 9.3 17.355 9.315 17.61C9.33 17.775 9.48 17.985 9.63 18.075C9.78 18.15 10.305 18.615 10.77 19.095C11.25 19.59 11.7 19.935 11.79 19.875C11.88 19.815 12.165 19.86 12.42 19.965C12.84 20.145 12.915 20.13 13.155 19.815C13.32 19.62 13.44 19.32 13.44 19.14C13.44 18.975 13.605 18.36 13.815 17.79C14.025 17.22 14.19 16.62 14.19 16.47C14.19 16.305 14.325 16.14 14.49 16.095C14.64 16.05 14.82 15.885 14.865 15.735C14.925 15.57 15.135 15.255 15.33 15.045C15.555 14.805 15.675 14.52 15.63 14.37C15.6 14.205 15.72 13.905 15.93 13.665C16.125 13.425 16.29 13.17 16.29 13.11C16.29 13.035 16.515 12.75 16.8 12.495C17.07 12.225 17.49 11.7 17.73 11.325C18.03 10.83 18.24 10.65 18.51 10.65C18.705 10.65 18.81 10.59 18.765 10.5C18.72 10.41 18.795 10.305 18.945 10.245C19.305 10.11 20.19 9.165 20.19 8.91C20.19 8.79 20.325 8.7 20.49 8.7C20.655 8.7 20.79 8.625 20.79 8.535C20.79 8.445 20.88 8.415 20.985 8.46C21.075 8.505 21.285 8.595 21.435 8.64Z" fill="#EC9615"/>
<path d="M4.65 18.345C4.605 18.585 4.59 18.81 4.65 18.855C4.695 18.915 4.74 18.84 4.74 18.69C4.74 18.555 4.815 18.48 4.89 18.525C5.07 18.645 5.085 18.45 4.905 18.165C4.785 17.985 4.74 18.03 4.65 18.345Z" fill="#EC9615"/>
<path d="M20.58 2.98501C20.43 3.22501 21.24 4.57501 22.02 5.40001C22.605 6.01501 22.815 6.16501 22.86 5.97001C22.905 5.73001 22.815 5.55 22.005 4.27501C21.57 3.58501 20.94 2.85001 20.775 2.85001C20.715 2.85001 20.625 2.91001 20.58 2.98501Z" fill="#ECC115"/>
<path d="M20.79 8.535C20.79 8.625 20.655 8.7 20.49 8.7C20.325 8.7 20.19 8.79 20.19 8.91C20.19 9.165 19.305 10.11 18.945 10.245C18.795 10.305 18.72 10.41 18.765 10.5C18.81 10.59 18.705 10.65 18.51 10.65C18.24 10.65 18.03 10.83 17.73 11.325C17.49 11.7 17.07 12.225 16.8 12.495C16.515 12.75 16.29 13.035 16.29 13.11C16.29 13.17 16.125 13.425 15.93 13.665C15.72 13.905 15.6 14.205 15.63 14.37C15.675 14.52 15.555 14.805 15.33 15.045C15.135 15.255 14.925 15.57 14.865 15.735C14.82 15.885 14.64 16.05 14.49 16.095C14.325 16.14 14.19 16.305 14.19 16.47C14.19 16.62 14.025 17.22 13.815 17.79C13.605 18.36 13.44 18.975 13.44 19.14C13.44 19.32 13.32 19.62 13.155 19.815C12.915 20.13 12.84 20.145 12.42 19.965C12.165 19.86 11.88 19.815 11.79 19.875C11.7 19.935 11.25 19.59 10.77 19.095C10.305 18.615 9.78 18.15 9.63 18.075C9.48 17.985 9.33 17.775 9.315 17.61C9.3 17.355 8.445 15.81 8.07 15.375C8.01 15.285 7.905 15.09 7.83 14.925C7.725 14.64 7.71 14.64 7.515 14.91C7.395 15.06 7.245 15.135 7.155 15.075C7.065 15.03 6.99 15 6.99 15.03C6.99 15.06 6.855 15.435 6.705 15.87C6.54 16.29 6.45 16.785 6.495 16.965C6.54 17.145 6.495 17.325 6.39 17.4C6.18 17.535 6.06 18.45 6.27 18.45C6.39 18.45 6.285 22.155 6.135 22.38C6.105 22.44 6.15 22.635 6.24 22.8C6.36 23.01 6.36 23.28 6.24 23.715C6.12 24.165 6.12 24.39 6.225 24.495C6.315 24.585 6.39 24.78 6.39 24.945C6.39 25.095 6.45 25.185 6.525 25.14C6.765 24.99 7.02 25.47 6.9 25.83C6.72 26.355 6.72 26.4 6.84 27.6C6.945 28.77 6.885 29.28 6.69 28.95C6.615 28.845 6.54 28.935 6.48 29.19C6.42 29.43 6.24 29.7 6.075 29.82C5.925 29.925 5.79 30.18 5.79 30.375C5.79 30.57 5.715 30.75 5.625 30.78C5.43 30.84 5.175 33.84 5.295 34.65C5.34 34.935 5.535 35.64 5.73 36.225C5.925 36.795 6.135 37.53 6.195 37.83C6.27 38.205 6.645 38.76 7.365 39.555C9 41.385 10.59 42.9 10.89 42.9C11.025 42.9 11.265 43.035 11.415 43.2C11.565 43.365 11.82 43.53 12 43.59C12.165 43.635 12.555 43.845 12.855 44.04C13.14 44.235 13.86 44.565 14.43 44.76C15 44.955 15.84 45.255 16.29 45.435C17.295 45.825 20.64 46.08 20.64 45.765C20.64 45.66 20.7 45.615 20.775 45.66C21.03 45.825 24.945 44.85 25.125 44.58C25.17 44.505 25.485 44.355 25.815 44.25C26.385 44.07 27.93 43.215 28.455 42.765C29.295 42.09 29.505 41.82 29.43 41.58C29.37 41.4 29.655 40.98 30.405 40.2C31.365 39.165 31.995 38.355 32.43 37.575C32.52 37.41 32.55 36.93 32.52 36.525C32.475 36.105 32.46 35.295 32.475 34.725C32.595 31.125 32.52 29.46 32.205 28.305C32.025 27.615 31.71 26.865 31.44 26.505C31.155 26.13 31.05 25.86 31.155 25.8C31.365 25.665 31.17 24.945 30.9 24.84C30.78 24.795 30.69 24.66 30.69 24.525C30.69 24.405 30.585 24.3 30.465 24.3C30.345 24.3 30.24 24.24 30.24 24.18C30.24 23.955 28.245 23.265 27.315 23.175C25.485 22.98 24.54 21.915 24.09 19.515C24 19.065 23.85 18.63 23.745 18.57C23.625 18.495 23.61 18.45 23.745 18.45C23.94 18.45 24.045 18.015 24.165 16.8C24.21 16.35 24.315 15.57 24.39 15.075C24.675 13.365 24.75 11.955 24.555 12.06C24.45 12.135 24.39 12.03 24.39 11.79C24.39 11.58 24.33 11.4 24.24 11.4C24.165 11.4 24.09 11.265 24.09 11.1C24.09 10.935 24.03 10.8 23.94 10.8C23.865 10.8 23.79 10.665 23.79 10.5C23.79 10.29 23.685 10.2 23.445 10.2C23.265 10.2 23.01 10.065 22.89 9.9C22.77 9.735 22.59 9.6 22.5 9.6C22.41 9.6 22.29 9.465 22.245 9.3C22.2 9.135 22.065 9 21.93 9C21.795 9 21.69 8.94 21.69 8.865C21.69 8.79 21.57 8.7 21.435 8.64C21.285 8.595 21.075 8.505 20.985 8.46C20.88 8.415 20.79 8.445 20.79 8.535ZM20.475 11.34C20.265 12.345 19.95 13.05 19.725 13.05C19.635 13.05 19.62 13.125 19.695 13.23C19.8 13.41 19.875 16.08 19.875 19.305C19.875 20.37 19.875 20.4 20.25 20.4C20.475 20.4 20.655 20.505 20.7 20.655C20.76 20.895 21.09 22.62 21.09 22.755C21.09 22.785 20.955 22.8 20.79 22.8C20.595 22.8 20.49 22.695 20.49 22.5C20.49 22.305 20.385 22.2 20.19 22.2C20.025 22.2 19.89 22.125 19.89 22.05C19.89 21.81 19.635 21.87 19.53 22.14C19.485 22.26 19.545 22.545 19.665 22.77C19.785 22.995 19.875 23.085 19.89 22.98C19.89 22.77 20.49 22.725 20.49 22.95C20.49 23.025 20.595 23.1 20.715 23.1C20.835 23.1 20.94 23.175 20.94 23.265C20.94 23.355 20.685 23.4 20.31 23.37C19.755 23.34 19.65 23.385 19.485 23.7C19.2 24.255 19.245 24.6 19.59 24.6C19.785 24.6 19.89 24.705 19.89 24.9C19.89 25.155 19.995 25.2 20.49 25.2H21.09V27H21.69C22.185 27 22.29 26.955 22.29 26.7C22.29 26.46 22.395 26.4 22.74 26.4C23.085 26.4 23.19 26.46 23.19 26.7C23.19 26.88 23.295 27 23.46 27C23.865 27 24.255 27.87 24.345 28.965C24.405 29.7 24.495 30 24.675 30.06C24.81 30.105 25.005 30.195 25.11 30.24C25.23 30.3 25.29 30.195 25.29 29.94C25.29 29.52 25.41 29.415 25.935 29.37C26.145 29.355 26.28 29.28 26.25 29.22C26.205 29.16 26.28 29.1 26.4 29.1C26.535 29.1 26.64 29.025 26.64 28.95C26.64 28.68 26.97 28.8 27.045 29.1C27.09 29.265 27.255 29.4 27.405 29.4C27.57 29.4 27.69 29.505 27.69 29.625C27.69 29.745 27.825 29.91 27.99 30C28.155 30.09 28.29 30.255 28.29 30.375C28.29 30.495 28.365 30.6 28.44 30.6C28.53 30.6 28.59 30.93 28.59 31.32C28.59 31.71 28.665 32.115 28.755 32.205C28.98 32.43 28.965 36.435 28.74 36.66C28.665 36.735 28.59 37.155 28.59 37.56C28.59 37.98 28.47 38.73 28.32 39.225C28.08 40.02 28.005 40.125 27.63 40.17C27.27 40.215 27.225 40.275 27.27 40.65C27.3 40.935 27.195 41.205 26.955 41.46C26.76 41.655 26.655 41.895 26.715 41.985C26.775 42.09 26.67 42.15 26.445 42.15C26.235 42.15 26.025 42.255 25.98 42.39C25.935 42.525 25.8 42.6 25.68 42.555C25.56 42.51 25.41 42.63 25.305 42.84C25.215 43.05 25.065 43.17 24.99 43.125C24.9 43.08 24.84 43.095 24.84 43.17C24.84 43.245 24.585 43.425 24.285 43.575C23.97 43.725 23.55 43.935 23.34 44.025C22.74 44.325 20.01 44.745 18.84 44.715C18.555 44.715 18.075 44.64 17.79 44.55C17.505 44.475 17.01 44.4 16.695 44.4C16.335 44.4 16.095 44.325 16.05 44.175C15.99 44.055 15.87 43.95 15.75 43.95C15.63 43.95 15.54 43.875 15.54 43.8C15.54 43.44 14.97 43.095 14.46 43.14C14.025 43.185 13.92 43.14 13.695 42.75C13.545 42.495 13.32 42.3 13.2 42.3C13.08 42.3 12.99 42.195 12.99 42.075C12.99 41.955 12.93 41.85 12.84 41.85C12.765 41.85 12.69 41.76 12.69 41.655C12.69 41.55 12.465 41.4 12.21 41.325C11.85 41.22 11.715 41.1 11.745 40.875C11.76 40.725 11.64 40.47 11.475 40.335C11.325 40.2 11.19 39.975 11.19 39.84C11.19 39.705 11.07 39.6 10.89 39.6C10.695 39.6 10.59 39.495 10.59 39.3C10.59 39.135 10.53 39 10.44 39C10.365 39 10.29 38.865 10.29 38.7C10.29 38.535 10.2 38.4 10.08 38.4C9.975 38.4 9.84 38.25 9.78 38.055C9.645 37.575 9.675 35.7 9.81 35.7C9.945 35.7 9.945 35.085 9.795 34.86C9.75 34.785 9.72 34.11 9.72 33.375C9.735 32.505 9.78 32.16 9.855 32.4C9.945 32.715 9.975 32.685 9.975 32.175C9.99 31.17 10.47 29.04 10.725 28.875C10.8 28.83 10.905 28.53 10.965 28.2C11.025 27.825 11.145 27.6 11.28 27.6C11.4 27.6 11.49 27.465 11.49 27.3C11.49 27.09 11.595 27 11.835 26.985C12.015 26.985 12.075 26.94 11.985 26.895C11.73 26.805 11.745 26.55 12 26.55C12.12 26.55 12.285 26.76 12.375 27C12.45 27.255 12.63 27.495 12.765 27.54C12.9 27.6 12.99 27.825 12.99 28.14C12.99 28.425 13.065 28.65 13.14 28.65C13.23 28.65 13.29 27.96 13.29 26.865C13.29 25.2 13.305 25.08 13.62 24.87C13.92 24.66 13.935 24.6 13.77 24.24C13.68 24.015 13.59 23.715 13.605 23.58C13.605 23.37 13.635 23.37 13.755 23.625C13.875 23.865 13.89 23.85 13.83 23.475C13.74 22.845 13.89 22.2 14.13 22.2C14.25 22.2 14.355 22.35 14.355 22.53L14.385 22.875L14.445 22.53C14.505 22.2 14.79 22.05 14.79 22.35C14.79 22.425 14.895 22.5 15.03 22.5C15.375 22.5 15.675 22.935 15.69 23.43C15.69 23.67 15.75 23.85 15.825 23.85C15.975 23.85 16.17 22.53 16.05 22.335C16.005 22.26 16.05 22.2 16.125 22.2C16.215 22.2 16.29 22.305 16.29 22.425C16.29 22.545 16.365 22.65 16.44 22.65C16.53 22.65 16.59 22.56 16.59 22.44C16.59 22.335 16.725 22.2 16.89 22.155C17.115 22.095 17.19 21.945 17.19 21.6C17.19 21.09 17.475 20.7 17.85 20.7C18.03 20.7 18.09 20.535 18.09 19.95C18.09 19.53 18.165 19.2 18.24 19.2C18.33 19.2 18.39 18.75 18.39 18.15C18.39 17.22 18.36 17.1 18.105 17.1C17.94 17.1 17.775 17.01 17.745 16.905C17.685 16.77 17.625 16.785 17.505 16.95C17.385 17.115 17.31 17.13 17.22 16.995C17.16 16.905 16.905 16.8 16.665 16.755C15.975 16.665 15.885 16.365 16.305 15.36C16.5 14.865 16.65 14.43 16.635 14.385C16.62 14.325 16.83 14.04 17.115 13.725C17.4 13.425 17.64 13.11 17.64 13.02C17.64 12.93 17.76 12.765 17.91 12.645C18.15 12.435 18.15 12.435 17.88 12.51C17.64 12.6 17.625 12.57 17.79 12.375C17.895 12.255 18.045 12.195 18.135 12.255C18.225 12.315 18.24 12.27 18.165 12.165C18.045 11.955 18.495 11.475 18.84 11.475C18.96 11.475 19.05 11.355 19.05 11.205C19.035 11.07 19.08 10.95 19.155 10.95C19.23 10.95 19.29 11.025 19.29 11.13C19.29 11.22 19.425 11.16 19.59 10.98C19.77 10.8 20.04 10.65 20.205 10.65C20.445 10.65 20.49 10.59 20.415 10.38C20.34 10.185 20.37 10.17 20.49 10.29C20.625 10.425 20.625 10.68 20.475 11.34ZM7.74 16.44C7.74 16.845 7.44 17.25 7.215 17.16C7.065 17.1 7.02 16.95 7.095 16.665C7.245 16.065 7.74 15.885 7.74 16.44ZM14.475 21.075C14.445 21.45 14.385 21.75 14.31 21.75C14.25 21.75 14.19 21.45 14.19 21.075C14.19 20.7 14.265 20.4 14.34 20.4C14.445 20.4 14.49 20.685 14.475 21.075ZM10.08 23.055C10.095 23.265 10.02 23.4 9.9 23.4C9.78 23.4 9.69 23.265 9.69 23.1C9.69 22.935 9.63 22.8 9.54 22.8C9.465 22.8 9.39 22.665 9.39 22.5C9.39 22.2 9.405 22.2 9.735 22.44C9.915 22.575 10.08 22.86 10.08 23.055ZM22.44 23.73C23.16 24.51 23.265 25.2 22.665 25.2C22.395 25.2 22.29 25.275 22.29 25.5C22.29 25.695 22.185 25.8 22.005 25.8C21.765 25.8 21.705 25.65 21.645 24.855C21.6 24.345 21.51 23.745 21.45 23.505C21.3 22.875 21.735 22.98 22.44 23.73Z" fill="#ECC115"/>
<path d="M18.87 14.265C18.9 14.355 18.99 14.415 19.065 14.415C19.14 14.415 19.23 14.355 19.26 14.265C19.29 14.175 19.2 14.1 19.065 14.1C18.93 14.1 18.84 14.175 18.87 14.265Z" fill="#ECC115"/>
<path d="M18.33 11.715C18.18 11.865 18.105 12.06 18.18 12.165C18.24 12.27 18.225 12.315 18.135 12.255C18.045 12.195 17.895 12.255 17.79 12.375C17.625 12.57 17.64 12.585 17.88 12.51C18.27 12.36 18.525 12.15 18.705 11.835C18.9 11.46 18.675 11.385 18.33 11.715Z" fill="#ECEC15"/>
<path d="M18.84 13.365C16.965 15.6 16.275 16.275 16.125 16.02C16.035 15.885 15.99 15.93 15.99 16.155C15.99 16.53 16.2 16.695 16.74 16.77C16.935 16.8 17.16 16.905 17.22 16.995C17.31 17.13 17.385 17.115 17.505 16.95C17.625 16.785 17.685 16.77 17.745 16.905C17.775 17.01 17.94 17.1 18.105 17.1C18.36 17.1 18.39 17.22 18.39 18.15C18.39 18.75 18.33 19.2 18.24 19.2C18.165 19.2 18.09 19.53 18.09 19.95C18.09 20.535 18.03 20.7 17.85 20.7C17.475 20.7 17.19 21.09 17.19 21.6C17.19 21.945 17.115 22.095 16.89 22.155C16.725 22.2 16.59 22.335 16.59 22.44C16.59 22.56 16.53 22.65 16.44 22.65C16.365 22.65 16.29 22.545 16.29 22.425C16.29 22.305 16.215 22.2 16.125 22.2C16.05 22.2 16.005 22.26 16.05 22.335C16.17 22.53 15.975 23.85 15.825 23.85C15.75 23.85 15.69 23.67 15.69 23.43C15.675 22.935 15.375 22.5 15.03 22.5C14.895 22.5 14.79 22.425 14.79 22.35C14.79 22.05 14.505 22.2 14.445 22.53L14.385 22.875L14.355 22.53C14.355 22.35 14.25 22.2 14.13 22.2C13.89 22.2 13.74 22.845 13.83 23.475C13.89 23.85 13.875 23.865 13.755 23.625C13.635 23.37 13.605 23.37 13.605 23.58C13.59 23.715 13.68 24.015 13.77 24.24C13.935 24.6 13.92 24.66 13.62 24.87C13.305 25.08 13.29 25.2 13.29 26.865C13.29 27.96 13.23 28.65 13.14 28.65C13.065 28.65 12.99 28.425 12.99 28.14C12.99 27.825 12.9 27.6 12.765 27.54C12.63 27.495 12.45 27.255 12.375 27C12.285 26.76 12.12 26.55 12 26.55C11.745 26.55 11.73 26.805 11.985 26.895C12.075 26.94 12.015 26.985 11.835 26.985C11.595 27 11.49 27.09 11.49 27.3C11.49 27.465 11.4 27.6 11.28 27.6C11.145 27.6 11.025 27.825 10.965 28.2C10.905 28.53 10.8 28.83 10.725 28.875C10.47 29.04 9.99 31.17 9.975 32.175C9.975 32.685 9.945 32.715 9.855 32.4C9.78 32.16 9.735 32.505 9.72 33.375C9.72 34.11 9.75 34.785 9.795 34.86C9.945 35.085 9.945 35.7 9.81 35.7C9.675 35.7 9.645 37.575 9.78 38.07C9.84 38.25 9.975 38.4 10.08 38.4C10.2 38.4 10.29 38.535 10.29 38.7C10.29 38.865 10.365 39 10.44 39C10.53 39 10.59 39.135 10.59 39.3C10.59 39.495 10.695 39.6 10.89 39.6C11.07 39.6 11.19 39.705 11.19 39.84C11.19 39.975 11.325 40.2 11.475 40.335C11.64 40.47 11.76 40.725 11.745 40.875C11.715 41.1 11.85 41.22 12.21 41.325C12.465 41.4 12.69 41.55 12.69 41.655C12.69 41.76 12.765 41.85 12.84 41.85C12.93 41.85 12.99 41.955 12.99 42.075C12.99 42.195 13.08 42.3 13.2 42.3C13.32 42.3 13.545 42.495 13.695 42.75C13.92 43.14 14.025 43.185 14.46 43.14C14.97 43.095 15.54 43.44 15.54 43.8C15.54 43.875 15.63 43.95 15.75 43.95C15.87 43.95 15.99 44.055 16.05 44.175C16.095 44.325 16.335 44.4 16.695 44.4C17.01 44.4 17.505 44.475 17.79 44.55C18.075 44.64 18.555 44.715 18.84 44.715C20.01 44.745 22.74 44.325 23.34 44.025C23.55 43.935 23.97 43.725 24.285 43.575C24.585 43.425 24.84 43.245 24.84 43.17C24.84 43.095 24.9 43.08 24.99 43.125C25.065 43.17 25.215 43.05 25.305 42.84C25.41 42.63 25.56 42.51 25.68 42.555C25.8 42.6 25.935 42.525 25.98 42.39C26.025 42.255 26.235 42.15 26.445 42.15C26.67 42.15 26.775 42.09 26.715 41.985C26.655 41.895 26.76 41.655 26.955 41.46C27.195 41.205 27.3 40.935 27.27 40.65C27.225 40.275 27.27 40.215 27.63 40.17C28.005 40.125 28.08 40.02 28.32 39.225C28.47 38.73 28.59 37.98 28.59 37.56C28.59 37.155 28.665 36.735 28.74 36.66C28.965 36.435 28.98 32.43 28.755 32.205C28.665 32.115 28.59 31.71 28.59 31.32C28.59 30.93 28.53 30.6 28.44 30.6C28.365 30.6 28.29 30.495 28.29 30.375C28.29 30.255 28.155 30.09 27.99 30C27.825 29.91 27.69 29.745 27.69 29.625C27.69 29.505 27.57 29.4 27.405 29.4C27.255 29.4 27.09 29.265 27.045 29.1C26.97 28.8 26.64 28.68 26.64 28.95C26.64 29.025 26.535 29.1 26.4 29.1C26.28 29.1 26.205 29.16 26.25 29.22C26.28 29.28 26.145 29.355 25.935 29.37C25.41 29.415 25.29 29.52 25.29 29.94C25.29 30.195 25.23 30.3 25.11 30.24C25.005 30.195 24.81 30.105 24.675 30.06C24.495 30 24.405 29.7 24.345 28.965C24.255 27.87 23.865 27 23.46 27C23.295 27 23.19 26.88 23.19 26.7C23.19 26.46 23.085 26.4 22.74 26.4C22.395 26.4 22.29 26.46 22.29 26.7C22.29 26.955 22.185 27 21.69 27H21.09V25.2H20.49C19.995 25.2 19.89 25.155 19.89 24.9C19.89 24.705 19.785 24.6 19.59 24.6C19.245 24.6 19.2 24.255 19.485 23.7C19.65 23.385 19.755 23.34 20.31 23.37C20.685 23.4 20.94 23.355 20.94 23.265C20.94 23.175 20.835 23.1 20.715 23.1C20.595 23.1 20.49 23.025 20.49 22.95C20.49 22.725 19.89 22.77 19.89 22.98C19.875 23.085 19.785 22.995 19.665 22.77C19.545 22.545 19.485 22.26 19.53 22.14C19.635 21.87 19.89 21.81 19.89 22.05C19.89 22.125 20.025 22.2 20.19 22.2C20.385 22.2 20.49 22.305 20.49 22.5C20.49 22.695 20.595 22.8 20.79 22.8C20.955 22.8 21.09 22.785 21.09 22.755C21.09 22.62 20.76 20.895 20.7 20.655C20.655 20.505 20.475 20.4 20.25 20.4C19.875 20.4 19.875 20.37 19.875 19.305C19.875 16.08 19.8 13.41 19.695 13.23C19.62 13.125 19.635 13.05 19.725 13.05C19.935 13.05 20.37 12.195 20.31 11.895C20.28 11.76 19.71 12.33 18.84 13.365ZM19.26 14.265C19.23 14.355 19.14 14.415 19.065 14.415C18.99 14.415 18.9 14.355 18.87 14.265C18.84 14.175 18.93 14.1 19.065 14.1C19.2 14.1 19.29 14.175 19.26 14.265ZM25.44 39.06C25.71 39.405 25.395 40.095 24.645 40.725C23.925 41.34 23.235 41.415 22.8 40.935C22.53 40.635 22.53 40.62 22.875 39.975C23.145 39.48 23.415 39.21 23.985 38.94C24.75 38.55 25.02 38.565 25.44 39.06ZM14.205 41.4C14.28 41.4 14.34 41.505 14.34 41.625C14.34 41.745 14.415 41.85 14.505 41.85C14.595 41.85 14.88 42.015 15.15 42.225C15.42 42.435 15.69 42.6 15.75 42.6C15.795 42.6 16.125 42.735 16.485 42.885C17.415 43.32 18.195 43.5 19.215 43.515L20.115 43.53L19.455 43.695C18.48 43.92 17.61 43.695 15.315 42.57C14.655 42.24 13.35 41.16 13.785 41.31C13.935 41.355 14.13 41.4 14.205 41.4Z" fill="#ECEC15"/>
<path d="M17.655 12.93C17.64 13.065 17.4 13.425 17.115 13.74C16.83 14.04 16.62 14.34 16.665 14.385C16.725 14.43 16.8 14.4 16.86 14.31C16.92 14.22 17.16 13.905 17.385 13.605C17.625 13.305 17.79 12.975 17.745 12.87C17.685 12.735 17.655 12.765 17.655 12.93Z" fill="#ECEC15"/>
<path d="M16.47 14.925C16.365 15.15 16.305 15.375 16.35 15.405C16.455 15.51 16.77 14.865 16.71 14.67C16.68 14.58 16.575 14.7 16.47 14.925Z" fill="#ECEC15"/>
<path d="M7.35 16.17C7.26 16.23 7.14 16.455 7.095 16.665C6.975 17.16 7.35 17.385 7.59 16.95C7.875 16.425 7.71 15.93 7.35 16.17Z" fill="#ECEC15"/>
<path d="M14.19 21.075C14.19 21.45 14.25 21.75 14.31 21.75C14.385 21.75 14.445 21.45 14.475 21.075C14.49 20.685 14.445 20.4 14.34 20.4C14.265 20.4 14.19 20.7 14.19 21.075Z" fill="#ECEC15"/>
<path d="M9.39 22.5C9.39 22.665 9.465 22.8 9.54 22.8C9.63 22.8 9.69 22.935 9.69 23.1C9.69 23.265 9.78 23.4 9.9 23.4C10.23 23.4 10.11 22.725 9.735 22.44C9.405 22.2 9.39 22.2 9.39 22.5Z" fill="#ECEC15"/>
<path d="M21.45 23.505C21.51 23.745 21.6 24.345 21.645 24.855C21.705 25.65 21.765 25.8 22.005 25.8C22.185 25.8 22.29 25.695 22.29 25.5C22.29 25.275 22.395 25.2 22.665 25.2C23.265 25.2 23.16 24.51 22.44 23.73C21.735 22.98 21.3 22.875 21.45 23.505Z" fill="#ECEC15"/>
<path d="M18.84 11.73C18.27 12.315 17.79 12.87 17.79 12.96C17.79 13.05 17.55 13.425 17.265 13.785C16.98 14.145 16.74 14.55 16.74 14.67C16.74 14.79 16.605 15.12 16.425 15.39C15.945 16.17 16.155 16.29 16.815 15.645C17.655 14.835 20.49 11.43 20.49 11.235C20.49 11.145 20.31 11.28 20.1 11.535C19.89 11.79 19.65 11.97 19.575 11.925C19.5 11.865 19.485 11.94 19.53 12.06C19.575 12.18 19.395 12.51 19.095 12.825L18.57 13.38L18.39 13.035C18.24 12.78 18.24 12.675 18.375 12.63C18.465 12.6 18.54 12.495 18.54 12.405C18.555 12.15 19.92 10.845 20.265 10.755C20.535 10.695 20.535 10.68 20.235 10.665C20.01 10.65 19.56 10.995 18.84 11.73Z" fill="#ECEC40"/>
<path d="M25.35 39.495C25.335 39.945 25.335 39.945 25.485 39.63C25.575 39.42 25.59 39.24 25.5 39.15C25.425 39.075 25.365 39.21 25.35 39.495Z" fill="#ECEC40"/>
<path d="M24.63 40.575C24.27 40.905 23.865 41.1 23.505 41.145L22.965 41.205L23.505 41.22C23.955 41.25 24.18 41.145 24.705 40.65C25.065 40.335 25.335 40.065 25.29 40.065C25.245 40.065 24.96 40.29 24.63 40.575Z" fill="#ECEC40"/>
<path d="M14.115 41.745C14.445 42.03 14.985 42.405 15.315 42.57C17.61 43.695 18.48 43.92 19.455 43.695L20.115 43.53L19.215 43.515C18.195 43.5 17.415 43.32 16.485 42.885C16.125 42.735 15.795 42.6 15.75 42.6C15.69 42.6 15.42 42.435 15.15 42.225C14.88 42.015 14.595 41.85 14.505 41.85C14.415 41.85 14.34 41.745 14.34 41.625C14.34 41.505 14.28 41.4 14.205 41.4C14.13 41.4 13.935 41.355 13.785 41.31C13.635 41.265 13.785 41.46 14.115 41.745Z" fill="#ECEC40"/>
</svg>
