<svg width="1874" height="2389" viewBox="0 0 1874 2389" fill="none" xmlns="http://www.w3.org/2000/svg">
<path d="M920.214 19.5878C840.714 77.7878 772.014 149.788 721.614 227.188C704.814 252.988 667.014 324.688 667.014 330.988C667.014 333.088 664.914 338.488 662.514 342.988C660.114 347.788 658.014 353.788 658.014 356.188C658.014 358.888 656.814 362.188 655.314 363.688C651.414 367.588 637.914 419.788 632.214 452.188C625.914 486.988 623.514 567.388 627.714 600.688C635.814 667.588 644.814 705.688 667.014 767.188C699.714 857.788 707.214 882.388 712.314 920.188C716.214 948.088 713.814 965.488 704.214 977.188C690.414 993.388 671.214 987.988 641.814 959.788C617.214 936.088 598.614 906.088 576.114 854.188C555.114 805.588 544.014 728.488 549.714 669.688C553.914 626.488 557.214 609.088 567.714 576.688C572.514 561.688 575.814 549.088 575.214 548.788C574.914 548.188 565.914 551.788 555.414 557.188C469.014 600.988 409.914 690.088 393.714 800.188C392.214 810.988 389.514 828.688 388.014 839.788C384.114 865.288 384.114 899.188 388.014 931.888C394.014 984.688 397.014 1006.29 401.514 1031.19C406.914 1062.99 406.914 1064.19 401.514 1064.19C394.614 1064.19 352.314 1040.79 337.314 1028.79C282.414 984.388 254.214 927.988 249.114 851.188C248.514 842.188 247.614 843.988 240.414 866.188C215.814 943.288 203.514 1013.49 200.514 1091.19C196.314 1199.19 213.714 1301.19 251.814 1393.59C257.514 1407.09 262.014 1418.79 262.014 1419.69C262.014 1420.59 257.514 1421.19 252.414 1421.19C225.414 1421.19 177.414 1384.89 157.914 1349.79C135.114 1308.99 127.014 1273.89 124.314 1205.49L122.514 1161.99L111.114 1180.59C77.5136 1234.89 37.9136 1329.99 24.7136 1388.19C-17.2864 1570.29 -3.48642 1746.39 64.6136 1904.19C148.314 2097.69 305.814 2242.89 517.014 2321.49C531.114 2326.59 548.514 2332.59 556.014 2334.69C649.914 2361.99 695.214 2370.99 788.514 2380.89C828.114 2385.09 903.114 2388.69 929.514 2388.09C1048.31 2384.49 1142.21 2373.39 1232.51 2352.99C1251.71 2348.49 1260.71 2346.09 1295.51 2336.19C1522.91 2270.19 1705.31 2126.79 1795.91 1943.19C1819.31 1895.79 1822.01 1889.19 1837.01 1842.09C1853.21 1791.69 1854.71 1785.69 1858.31 1766.19C1860.71 1750.89 1862.21 1741.89 1870.01 1687.59C1875.11 1653.09 1873.61 1556.49 1867.01 1506.69C1857.11 1428.69 1848.11 1388.79 1823.81 1315.59C1811.21 1277.19 1777.01 1191.99 1775.21 1194.09C1774.61 1194.39 1776.11 1208.49 1778.51 1224.69C1783.61 1260.39 1784.51 1356.69 1779.71 1384.89C1767.71 1458.39 1745.81 1508.79 1710.71 1543.59C1684.31 1569.69 1681.31 1566.09 1695.71 1527.09C1703.81 1505.79 1711.01 1476.99 1719.71 1434.09C1726.91 1398.09 1729.91 1334.79 1726.31 1293.39C1718.21 1199.19 1696.91 1135.89 1641.41 1040.19C1627.61 1016.19 1612.31 988.588 1607.81 978.688C1591.91 944.788 1570.01 883.288 1563.71 855.388C1562.21 848.188 1559.51 835.888 1557.71 827.788C1555.91 819.988 1554.11 797.788 1554.11 778.588L1553.51 743.488L1545.11 751.588C1526.51 769.288 1497.41 819.688 1481.51 861.688C1474.61 880.288 1455.71 942.688 1451.81 959.788C1450.01 968.188 1441.01 971.788 1441.01 964.288C1441.01 962.488 1438.91 957.088 1436.81 952.588C1421.81 923.788 1394.51 827.788 1384.01 765.688C1380.71 746.788 1377.11 727.588 1376.21 723.688C1375.31 719.488 1373.51 682.588 1372.31 641.788L1370.51 567.688L1354.01 594.088C1345.01 608.488 1310.51 663.088 1277.51 715.288C1244.51 767.488 1206.71 827.788 1193.21 849.388C1179.71 870.988 1166.81 888.988 1164.41 889.588C1160.51 890.188 1159.61 882.388 1158.11 838.588C1156.31 793.288 1151.21 749.188 1141.31 693.088C1138.01 674.488 1123.91 625.288 1118.21 612.088C1115.81 606.988 1114.01 601.588 1114.01 600.088C1114.01 595.288 1096.91 561.988 1085.21 543.388C1078.91 533.488 1047.71 498.688 1015.31 465.688C933.414 381.988 910.614 352.588 891.114 305.188C881.814 282.388 874.014 242.488 874.014 218.488C874.014 196.288 883.314 147.388 892.914 118.888C901.914 91.5878 923.814 44.1878 938.814 19.5878C944.814 9.68784 949.314 1.28784 948.714 0.687838C948.114 0.0878377 935.214 8.78784 920.214 19.5878Z" fill="#EC6B15"/>
</svg>
